/* XPM */
static char *bitcoina1679479109[] = {
/* columns rows colors chars-per-pixel */
"64 64 104 2 ",
"   c #477E21",
".  c #487E21",
"X  c #4E8122",
"o  c #538323",
"O  c #598625",
"+  c #519322",
"@  c #5B9624",
"#  c #6C8E28",
"$  c #629826",
"%  c #6E9D28",
"&  c #769F29",
"*  c #5DA52A",
"=  c #62A62B",
"-  c #68A72C",
";  c #6AA82C",
":  c #70B73F",
">  c #81972C",
",  c #8E9C2E",
"<  c #82A32C",
"1  c #95A92F",
"2  c #8AAF31",
"3  c #9BA231",
"4  c #8DB032",
"5  c #90B233",
"6  c #A5A532",
"7  c #AFAA35",
"8  c #B7AD36",
"9  c #BDAF38",
"0  c #A6B636",
"q  c #AFB135",
"w  c #ADB937",
"e  c #B3B235",
"r  c #BFB038",
"t  c #B5BA38",
"y  c #BDBB39",
"u  c #D48F00",
"i  c #D49000",
"p  c #D89507",
"a  c #D79408",
"s  c #D89609",
"d  c #DB9A0D",
"f  c #DE9D12",
"g  c #E09F14",
"h  c #E1A117",
"j  c #E4A51B",
"k  c #E6A81F",
"l  c #C7B339",
"z  c #C6BC3A",
"x  c #CABB3A",
"c  c #D0B73B",
"v  c #D3BE3C",
"b  c #DABE3C",
"n  c #E7A921",
"m  c #E9AC24",
"M  c #EBAF28",
"N  c #EDB22A",
"B  c #F0B52E",
"V  c #E3BE3E",
"C  c #F1B730",
"Z  c #F4BB34",
"A  c #F7BE38",
"S  c #F8BF39",
"D  c #D4C03D",
"F  c #DDC33F",
"G  c #E4C23F",
"H  c #FAC23D",
"J  c #86BA40",
"K  c #80CC4B",
"L  c #8CCB4A",
"P  c #93CC4A",
"I  c #9ACC4A",
"U  c #A0CB49",
"Y  c #A8CC49",
"T  c #B3CC48",
"R  c #B9CB48",
"E  c #ACDE57",
"W  c #A5DF59",
"Q  c #B5DC55",
"!  c #BADA54",
"~  c #9DE15B",
"^  c #A2E05A",
"/  c #C5C342",
"(  c #C6CC47",
")  c #CBCB47",
"_  c #D4C543",
"`  c #DDC543",
"'  c #D2CB46",
"]  c #DCCB46",
"[  c #CFD64F",
"{  c #D3D54E",
"}  c #DBD34C",
"|  c #C5D851",
" . c #C9D851",
".. c #E6C540",
"X. c #ECC440",
"o. c #E6CA45",
"O. c #ECCA44",
"+. c #E7CF49",
"@. c #EACF49",
"#. c #F3C542",
"$. c #FEC743",
"%. c #F5CA44",
"&. c #FFC843",
"*. c #E4D14B",
/* pixels */
"* + + K K + + + + K K ~ ~ + + ~ ~ . . ~ ~ + + K L !  ./ _ D ......%.*.] ) 3 > L K ~ ~ + + K K     ~ ~ K K     K K + + ~ ~ K K * ",
"* * *     : : * *     K K * * ~ ~ + + ~ ^ % 1 } +.X.#.$.&.&.&.&.&.&.&.&.&.&.%.F z R I W ~ + + ~ ~     + + K K * * ~ ~ : : + + * ",
"* * *     : : * *     K K * * ~ ~ + + ! *.X.&.$.&.$.$.$.&.$.$.&.&.&.&.&.&.$.&.&.&.&.%.*.| + + ~ ~     + + K K * * ~ ~ : : + + * ",
"~ + + + + ~ ~ K K + + + + + + + @ T o.&.&.&.&.&.&.&.&.$.&.&.&.&.&.&.&.&.&.&.&.&.&.&.&.&.&.O.R W ~ + + + + ~ ~ + + + + K K + + ~ ",
"~ + + + + ~ ~ K K + + + + + + & x %.$.&.&.&.&.&.&.&.$.&.$.&.&.&.&.&.$.$.&.&.&.&.&.&.&.&.&.&.&.*.Q @ + + + ~ ~ + + + + K K + + ~ ",
"~ * * ~ ~         ~ ~ ~ ~ * t %.$.&.$.$.&.&.&.&.$.&.$.$.$.$.&.&.&.&.$.$.&.$.&.&.&.&.&.&.&.$.&.&.&.z - * * K K ~ ~ ~ ~     + + + ",
"~ * * ~ ~         ~ ~ ^ Q F &.&.&.&.$.&.&.&.&.&.&.H C M n j f d d f j k m C H &.&.&.&.&.&.&.&.&.&.&.G 4 * K K ~ ~ ~ ~     + + + ",
"K ~ ~ K K + + + + + + T %.$.&.&.&.&.&.&.&.&.H N f a u i i i u u i i i i i u u f m H &.&.&.&.&.&.&.&.&.&. .@ + X   K K + + + + ~ ",
"K ~ ~ K K + + + + + 1 %.&.$.&.$.%.&.&.&.H m s i u i u i i u i u i i i i i i i i i a k H &.&.&.&.&.&.&.&.&.q + X   K K + + + + ~ ",
"* ~ ~     ~ ~ ~ ~ 0 &.$.$.&.$.&.&.&.H k s i i i u i i i i i i i i i i i u i i i i i u a h H &.&.&.&.&.&.&.&.[ K K     K K + + K ",
"* ~ ~     ~ ~ ^ | $.$.&.$.&.$.$.&.N a i i i i i i i u u i u i u i i i i i i i i i i u u i a M $.&.&.&.&.&.&.&.( K     K K + + K ",
"+ K K ~ ~   . T %.$.$.$.&.$.$.H h a i i i i i i i u i i i i i i i i i i i i i i u i i i i i i g H H &.&.&.&.&.&.[ + + ~ ~ K K   ",
"+ K K ~ ~   # %.&.$.$.$.&.$.H j u i i i i u i i i i u i i i i i a i i i i i i u i i i i i i i u g H &.&.&.&.&.&.&.< + ~ ~ K K   ",
"~     K K @ b &.$.$.&.$.$.H f u i i i u i u i u u i i i i u d Z &.Z p i i i i i i i i i i i i i i s A &.&.&.&.&.&.G @ ~ ~ K K * ",
"~     K K e $.&.&.$.$.$.S f u u i i i i i u i u u u i i i u N &.&.&.m u u i i i i i i i u i i i i i s Z &.&.&.&.&.&.z W ~ K K * ",
"K ~ ~ + & #.$.$.$.$.$.H j i i i i i u i i i i i u u i i i d A $.&.&.A a i i i i i i i u i i i i i i i g H &.&.&.&.&.&.U K + + * ",
"K ~ ~ @ x &.&.$.&.&.&.j i i u i i i i i i u i i u a n Z $.$.&.&.&.&.&.$.H N j p i i i u i i i i i i i i f H &.&.&.&.&.o.P + + * ",
"+ ~ ^ Y %.$.&.$.&.&.N p i i i i i i i i i i i i j Z $.&.&.&.&.&.&.&.&.&.&.&.H C k p i u i u i i i i i i a m &.&.&.&.&.%.6 + + * ",
"+ ~ ~ o.$.&.$.&.&.H a i i u u i i i u i i i i N $.$.$.&.$.$.&.&.&.&.$.&.&.&.&.&.$.A a u i i i i i i i i i i A &.&.&.&.&.#.@ + * ",
"*   > &.$.&.$.&.%.k i u i u u i i i i i i i m %.&.&.&.$.&.&.&.&.&.&.&.&.&.&.&.&.$.$.N i i i i i i i i i i i g &.&.&.&.&.$.w * * ",
"* X l &.$.&.$.&.#.s i i i i i i i u i i i s H &.&.&.$.&.$.&.$.&.&.&.&.&.&.&.&.&.&.&.C a i i i i i i i i i i i H &.&.&.&.&.F ; * ",
"* P %.&.$.$.$.$.n i i i i i i u u i i i i N &.&.$.&.&.$.H n C $.&.&.H $.&.&.&.&.&.&.N i i i i u i i i i i i i g $.&.&.&.&.&.Q * ",
"* T &.&.$.&.&.H a i i i i i i i i i i i p H &.&.&.&.&.Z s i N $.&.&.n a j C &.&.&.H s i i i u i i i i i i i i a A &.&.&.&.&.[ * ",
"K } $.&.&.$.$.N i i i i i i i i i i i i s H &.&.&.&.&.j i i N $.&.&.n u u u f M n p i i i u i i i i i i i i i u k &.&.&.&.&.] @ ",
"L +.&.&.&.&.&.f u i i i i u i i i u u u d H &.&.&.&.&.j i u N $.&.&.m u i i u i u i i i i i i i u i i i i i i i p $.$.&.&.&.O.& ",
"4 %.&.&.$.$.$.u u i i i u i i i i i i u s H &.&.&.&.&.N a i N $.&.&.m i i i i i i i u i i i i i i i i i i i i i u A &.&.&.&.#.T ",
"0 &.&.&.$.$.C u u i i i i i i i u i u i s H &.&.&.&.&.&.Z d N &.&.&.n i i u i i i i i i i u i i i i i i i u i i i N $.&.&.&.&.) ",
"y &.$.&.$.$.M u i u i i i i i i i i i i i N &.&.&.&.&.&.$.H $.&.&.&.n i i i i i i i i i i i i i i i i i i i i i i k $.&.&.&.&.v ",
"/ &.&.&.&.&.k u i u u u i i u i i i i i i f &.&.&.&.&.&.&.&.&.&.&.&.C h p u i i i i i i i i i i i i i u i i i i i h &.&.&.&.&.G ",
"v &.&.&.&.$.j u u i u u i i i i i i i i u u N %.$.&.&.$.&.&.&.&.&.&.&.&.$.N f i i i i i u i i i i i i i i i i i i s &.&.&.&.&.O.",
"..$.&.$.$.&.f i i i u i u i i i i i u i i i a N $.&.&.$.&.$.&.&.&.&.&.&.&.&.H B h i i i i i i i i u i i i i i i i s &.&.&.&.&.#.",
"G $.$.$.$.&.f u i i u u i i i i i i i i i i i i n H &.&.&.&.&.&.&.&.&.&.&.&.&.&.H h i i i i u i i i i i i i i i i s &.&.&.&.&.&.",
"G &.$.&.&.&.d u i i i i i i i i i i i i i u i i u a k A &.&.&.&.&.&.&.&.$.&.&.&.$.$.k i i i i i i i i i i i i u i p &.&.&.&.&.&.",
"G &.&.&.&.&.g u i i u i u i i i i i i i i i i i i u u p j m H &.&.&.&.&.&.&.&.&.$.$.H d i i i u i i i u i i i u i p &.&.&.&.&.&.",
"b &.&.&.&.&.h u i i i i i u i i i i i u i i i i i i u i u u N &.&.&.&.$.&.&.&.&.&.&.&.m i u i i i i i i i i i i i d &.&.&.&.&.%.",
"x &.&.&.&.&.n i i i i i i i i u i u i i i i i i i i i i i u N &.&.&.m j Z &.&.&.$.&.$.C a u i i i i i i i u u i i g &.&.&.&.&...",
"z &.&.&.&.&.m i i i i i i i i i i i i i i i i u i i i i i i N &.&.&.m i d A $.&.&.&.&.A d i u i i u i i i i i i u k &.&.&.&.&._ ",
"0 %.&.&.$.&.C u u i i i i i u i i i i i i i a a i u i i i i N &.&.&.n i u k &.$.$.&.&.H f u i i i i i i u i i u u M &.$.&.$.$.y ",
"5 #.&.&.&.&.H u i i i i i i i i i i i u d C &.&.C f i i u u N $.$.&.n i u j &.&.&.&.&.A d u i i i i i u i u i i u Z &.&.&.&.#.0 ",
"L @.&.&.&.&.$.f i u i i u i i i i i i i N &.&.&.&.&.N d a u N &.&.&.n u a C $.$.&.&.&.A p i i i i i i i i i i i a $.&.&.&.&.%.U ",
"L } $.&.&.&.&.M i i i i u i i i i i i p A &.&.&.&.&.$.H C j C $.&.&.n p m &.&.&.&.&.&.B i u i i i i i i i i u u j $.&.&.&.&.+.L ",
"X T &.&.&.&.&.H p i i i i i i i u i u a Z $.&.&.&.&.&.&.&.&.&.&.&.&.#.&.&.&.&.&.$.&.$.j i i i i u i i i i i i a Z &.&.$.$.&.{   ",
"  P %.&.&.&.&.$.j i i i i i i i i i i u k $.&.&.&.&.$.&.&.&.&.$.&.&.$.&.&.&.&.&.&.&.N a i u i i i i i i i i i f $.&.&.&.&.&.!   ",
"+ X c &.&.&.&.&.H p i i i i i u i i i i i k A &.&.&.&.&.&.&.&.&.$.&.&.&.&.&.&.$.&.C p i i i i i i i u i i i i Z $.$.&.&.$.O.L + ",
"+ X , &.&.&.&.&.$.j i i i i i i i i i i i i d N $.$.$.&.&.&.&.&.&.&.&.&.&.&.&.$.B s i i i i i u i i i i i i g $.&.&.&.&.&.) K + ",
"~ + + V &.$.&.&.$.H i i i i i i i i u i u i i i i k A H $.&.&.&.&.&.$.$.$.$.C f i i i i i i i i i u u i i i Z $.$.&.&.$.%.O   ~ ",
"~ + + 3 H &.&.&.&.&.N i i u u i i i i i i u i i i i a d h k H $.&.$.H n j s a i i i i i i i i i i i u i i n $.&.&.$.$.&.)     ~ ",
"K ~ ~ $ v &.&.&.$.$.$.g i i i i i i i i i i i i i i u u u a Z &.&.&.A u u u u u i i i i i i i i i i i i d H &.$.&.&.$.b # + + K ",
"K ~ ~ + < &.&.&.&.&.&.H f i i i i i i i i i i i i i i i i i Z &.&.&.A u i i i u i i i i i i i i i i i d Z &.&.&.&.&.&.,   + + K ",
"+     ~ ^ 9 &.&.&.&.&.$.A a i i i i i i i i i i i i i i i i B &.&.$.N i i u i i i i i i i u i i i u p Z $.&.$.&.$.&.` L K + + + ",
"+     ~ ~ o G &.&.&.&.&.&.A s i i i i i i i i u i i u u i u f H &.H d i i i i u i u i u i i i i u a C $.&.&.&.$.&.%.J K K + + + ",
"* + + K K + < &.&.&.$.&.&.&.A f i i i i i i i i i i i i i i i a d a u i i i i i i i i i i i i i s Z $.&.&.&.&.&.&.1 + K K * * * ",
"* + + K K + + [ &.&.&.&.&.&.&.A h i i i i i u i i i i i u i i i i i i i i u i i i i i i i i i d A H &.&.&.&.$.#.9 @ + K K * * * ",
"* + +     ~ ~ K ( &.&.&.&.&.&.&.H m i i i i i i i i i i i i i i i i i i u u i i u i i i i u n H &.&.$.&.$.$.$.x @ K K ~ ~ K K * ",
"* + +     ~ ~ K K 7 &.&.&.&.&.&.&.&.A h a u i i u i u i i i i i i i i i i i i i u u i i f Z &.&.&.&.&.&.&.&.x @ + K K ~ ~ K K * ",
"~ * * + + K K   X + q &.&.&.&.&.&.&.&.$.A h p u i i i i i i i u i i u u i i i u u a g Z &.&.&.&.&.&.&.&.&.l X + + * * ~ ~     ~ ",
"~ * * + + K K     + + t &.&.&.&.&.&.&.&.&.$.A k p u i u i i i i i i i i i i u a j C &.&.&.&.&.&.&.&.&.&.) X   + + * * ~ ~     ~ ",
"  ~ ~ * * ~ ~ ~ ~ * * * 4 %.&.&.&.&.&.&.&.&.&.&.$.A N k j d s a a p d g k M Z $.&.&.&.$.$.&.&.&.&.&.&.Y L K K * * ~ ~ K K + +   ",
"  ~ ~ * * ~ ~ ~ ~ * * * = ^ } %.&.&.&.&.&.$.&.&.$.&.&.&.$.&.$.&.&.&.&.&.&.$.$.$.&.&.&.&.&.$.&.&.&.*.E K K K K * * ~ ~ K K + +   ",
"+     ~ ~ K K + + ~ ~   . ^ ^ Y o.%.&.&.&.&.&.&.&.&.$.&.&.&.&.&.&.&.&.&.&.&.&.$.&.&.&.&.&.&.&.o.Y O   + + K K * * K K     * * + ",
"+     ~ ~ K K + + ~ ~     ~ ~ K P [ %.&.&.&.&.&.&.&.&.&.&.&.&.&.&.&.&.&.&.&.&.&.&.&.&.&.&.&.{ I K . . + + K K * * K K     * * + ",
"+     ~ ~ + +     K K ~ ~ K K     ~ ^ w F %.&.&.&.$.&.&.&.$.&.&.&.&.&.&.$.$.&.$.&.&.&.G e L K   . + + ~ ~ ~ ~ K K     + + ~ ~ + ",
"+     ~ ~ + +     K K ~ ~ K K     ~ ~ = ; Q [ v G &.&.&.&.&.&.&.&.&.&.&.&.&.#.%.+.e < $ + K K     + + ~ ~ ~ ~ K K     + + ~ ~ + ",
"* + + K K + + + + K K ~ ~ + + ~ ~     ~ ~ + + L I | { _ ..O.&.&.&.%.%.O.] 8 3 U L ~ ~ + + K K     ~ ~ K K     K K + + ~ ~ K K * "
};
