/* XPM */
static char *Exit1679479109[] = {
/* columns rows colors chars-per-pixel */
"64 64 205 2 ",
"   c #5DA52A",
".  c #519322",
"X  c #80CC4B",
"o  c #9DE15B",
"O  c #477E21",
"+  c gray31",
"@  c #49752A",
"#  c #70B73F",
"$  c #84B257",
"%  c #4D5846",
"&  c #959595",
"*  c #5D5D5D",
"=  c gray42",
"-  c gray53",
";  c #65715D",
":  c #4F5D46",
">  c #50683F",
",  c #506A3D",
"<  c #6E8954",
"1  c #768666",
"2  c gray54",
"3  c #A5A5A5",
"4  c gray65",
"5  c gray38",
"6  c #727272",
"7  c #C1C1C1",
"8  c gray70",
"9  c #838383",
"0  c #7A7F76",
"q  c #63814D",
"w  c #93CF5A",
"e  c #51872A",
"r  c #507E30",
"t  c #71A64C",
"y  c DimGray",
"u  c #777777",
"i  c #818181",
"p  c gray61",
"a  c gray87",
"s  c gray67",
"d  c #B7B7B7",
"f  c LightGray",
"g  c #BCBCBC",
"h  c #979797",
"j  c gray52",
"k  c #557A3B",
"l  c #76B14C",
"z  c #6C6C6C",
"x  c #5E744E",
"c  c #536944",
"v  c #B1B1B1",
"b  c #526048",
"n  c #81857E",
"m  c #8D8D8D",
"M  c #7A5711",
"N  c #585143",
"B  c #5A5A5A",
"V  c #6F6F6F",
"C  c #717171",
"Z  c #808080",
"A  c #A2A2A2",
"S  c gray76",
"D  c #5F6C51",
"F  c #8ABE58",
"G  c #9F9F9F",
"H  c #716651",
"J  c #6F5520",
"K  c #976501",
"L  c #895B01",
"P  c #8C5E01",
"I  c #936301",
"U  c #855901",
"Y  c #77581A",
"T  c #705B31",
"R  c #989898",
"E  c gray68",
"W  c #6D825E",
"Q  c #5A9033",
"!  c #7B9C5C",
"~  c #655330",
"^  c #76591D",
"/  c #916101",
"(  c #A36D01",
")  c #8B5D01",
"_  c #9D6901",
"`  c #956301",
"'  c #885E0A",
"]  c #7D7A73",
"[  c #8E8E8E",
"{  c #6B8559",
"}  c #598D34",
"|  c #518928",
" . c #617651",
".. c #606060",
"X. c #716C61",
"o. c #5A513F",
"O. c #865A01",
"+. c #645333",
"@. c #6C6659",
"#. c #6E7E5E",
"$. c #518C27",
"%. c #556749",
"&. c #A0A0A0",
"*. c #C6C6C6",
"=. c #9D9D9D",
"-. c #6A6761",
";. c #73571D",
":. c #885B01",
">. c #8D5F01",
",. c #795816",
"<. c #545047",
"1. c #898989",
"2. c #585858",
"3. c #487926",
"4. c #838780",
"5. c #7C7C7C",
"6. c #6A6A6A",
"7. c #725A28",
"8. c #8F6207",
"9. c #9E6A01",
"0. c #936406",
"q. c gray44",
"w. c gray55",
"e. c gray57",
"r. c #755618",
"t. c #9A6701",
"y. c #747474",
"u. c #AEAEAE",
"i. c gray73",
"p. c #CACACA",
"a. c gray58",
"s. c #AAAAAA",
"d. c #555555",
"f. c gray51",
"g. c #A9A9A9",
"h. c #B2B2B2",
"j. c #868686",
"k. c gray35",
"l. c gray62",
"z. c gray39",
"x. c #656565",
"c. c #956504",
"v. c #74510B",
"b. c #835C0E",
"n. c #39342B",
"m. c #6D6D6D",
"M. c #C5C5C5",
"N. c #473C27",
"B. c #403929",
"V. c gray19",
"C. c #A7A7A7",
"Z. c gray72",
"A. c gray77",
"S. c #5E481D",
"D. c #504123",
"F. c #ACACAC",
"G. c gray",
"H. c #865D0D",
"J. c #413827",
"K. c #5B5B5B",
"L. c #676767",
"P. c #C8C8C8",
"I. c #8C610B",
"U. c #433A29",
"Y. c #554421",
"T. c #916309",
"R. c #815B0F",
"E. c #885F0D",
"W. c gray48",
"Q. c #9A6805",
"!. c #755514",
"~. c #54421D",
"^. c #57441D",
"/. c #634B1C",
"(. c #A4A4A4",
"). c #686868",
"_. c #5E491D",
"`. c #55421D",
"'. c #6C5018",
"]. c #8B8B8B",
"[. c #7E7E7E",
"{. c #767676",
"}. c #909090",
"|. c gray66",
" X c #7B7B7B",
".X c #8D6108",
"XX c #5B4519",
"oX c gray43",
"OX c #8C610A",
"+X c #715216",
"@X c gray69",
"#X c #D8D8D8",
"$X c gray71",
"%X c #AFAFAF",
"&X c #CECECE",
"*X c gray50",
"=X c #888888",
"-X c #BBBBBB",
";X c #CDCDCD",
":X c #8A5D01",
">X c #8E5F01",
",X c #875A01",
"<X c gray46",
"1X c #66532E",
"2X c #797979",
/* pixels */
"  . . X X . . . . X X o o . . o o O O o o . . X X o o + + + + + + + + + + + @ X X o o . . X X O O o o X X O O X X . . o o X X   ",
"      O O # #     O O X X     o o . . o o . . o $ % % & * = & & & & & - + & ; : > X X o o . . o o O O . . X X     o o # # . .   ",
"      O O # #     O O X X     o o . . o o . , < 1 2 3 4 5 6 4 4 4 7 8 & + 4 2 9 0 q q w o . . o o O O . . X X     o o # # . .   ",
"o . . . . o o X X . . . . . . . . X X e r t y u i p a 4 5 6 s d 4 f g & + 4 4 h j y y k r l X o o . . . . o o . . . . X X . . o ",
"o . . . . o o X X . . . . . . . . X X , + + 4 f 3 z a 4 5 6 d a 4 f g & + 4 4 6 5 4 4 5 + x X o o . . . . o o . . . . X X . . o ",
"o     o o O O O O o o o o     X X   c + z a 4 4 4 & + + + + + + + + + + + + + 9 4 4 a v 6 + + o o         X X o o o o O O . . . ",
"o     o o O O O O o o o o     X X b n & m z 4 4 2 * + M M M M M M M M M M M N B V 4 v C Z A S D F         X X o o o o O O . . . ",
"X o o X X . . . . . . X X o o w < 9 8 8 G 9 6 6 H J J K L P K K K K K I U K Y J T 6 6 Z R E g 9 W Q   o o . . O O X X . . . . o ",
"X o o X X . . . . . . X X o F ! 6 9 8 G 9 9 ~ ~ ^ / / ( ) / ( ( ( ( ( _ U ( ` / ' ~ ~ ] 9 [ 4 9 - { } o o . . O O X X . . . . o ",
"  o o O O o o o o     . . |  .u 4 ..j X.o.o.) O./ ( ( ( ) / ( ( ( ( ( _ U ( ( ( _ U ) +.o.@.& ..v [ #.@ O o o X X O O X X . . X ",
"  o o O O o o o o     . $.%.&.*.=.=.-.;.:.:.( ) / ( ( ( ) / ( ( ( ( ( _ U ( ( ( _ U ( >.:.,.<.=.=.=.1.2.3.o o X X O O X X . . X ",
". X X o o O O X X o o   b 4.5.6.5 5 7.8._ _ ( ) / ( ( ( ) / ( ( ( ( ( _ U ( ( ( _ U ( 9._ 0.M 5 5 5 q.& : . . o o . . o o X X O ",
". X X o o O O X X o o   + w.e.9 9 + r.K ( ( ( ) / ( ( ( ) / ( ( ( ( ( _ U ( ( ( _ U ( ( ( t.U + y.9 [ 4 + . . o o . . o o X X O ",
"o O O X X . .     X X o + w.d g 4 + r.K ( ( ( ) / ( ( ( ) / ( ( ( ( ( _ U ( ( ( _ U ( ( ( t.U + w.4 u.S + X X o o . . o o X X   ",
"o O O X X . .     X X o + Z i.p.4 + r.K ( ( ( ) / ( ( ( ) / ( ( ( ( ( _ U ( ( ( _ U ( ( ( t.U + a.s.8 f + X X o o . . o o X X   ",
"X o o . .     X X O O X + d.f.=.=.+ r.K ( ( ( ) / ( ( ( ) / ( ( ( ( ( _ U ( ( ( _ U ( ( ( t.U + g.h.=.=.+ o o . . o o X X . .   ",
"X o o . .     X X O O X + j.y.2.2.+ r.K ( ( ( ) / ( ( ( ) / ( ( ( ( ( _ U ( ( ( _ U ( ( ( t.U + k.B 2.2.+ o o . . o o X X . .   ",
". o o X X o o O O . . . + w.p & & + r.K ( ( ( ) / ( ( ( ) / ( ( ( ( ( _ U ( ( ( _ U ( ( ( t.U + Z & & & + o o . . X X O O . .   ",
". o o X X o o O O . . . + w.d g 4 + r.K ( ( ( ) / ( ( ( ) / ( ( ( ( ( _ U ( ( ( _ U ( ( ( t.U + w.4 4 4 + o o . . X X O O . .   ",
"  O O o o X X X X . . o + y.h l.9 + r.K ( ( ( ) / ( ( ( ) / ( ( ( ( ( _ U ( ( ( _ U ( ( ( t.U + w.4 p 9 + O O o o X X . .       ",
"  O O o o X X X X . . o + z.x.5 5 + r.K ( ( ( ) / ( ( ( ) / ( ( ( ( ( _ U ( ( ( _ U ( ( ( c.v.+ Z & j 5 + O O o o X X . .       ",
"  X X o o O O X X o o X + g.h.=.=.+ r.K ( ( ( ) / ( ( ( ) / ( ( ( ( ( _ U ( ( ( _ U ( ( ( b.n.+ d.2.m.=.+ . . X X O O . . o o   ",
"  X X o o O O X X o o X + a.M.p.4 + r.K ( ( ( ) / ( ( ( ) / ( ( ( ( ( _ U ( ( ( _ U N.N.N.B.V.+ Z & C.f + . . X X O O . . o o   ",
"X o o O O . .     o o . + w.8 Z.4 + r.K ( ( ( ) / ( ( ( ) / ( ( ( ( ( _ U ( ( ( _ U V.V.V.V.V.+ w.i.A.g + o o O O . . X X X X . ",
"X o o O O . .     o o . + w.e.9 9 + r.K ( ( ( ) / ( ( ( ) / ( ( ( ( ( _ U ( ( ( _ U S.S.S.D.V.+ y.F.G.4 + o o O O . . X X X X . ",
"  o o . .     X X O O o + Z 5.6.5 + r.K ( ( ( ) / ( ( ( ) / ( ( ( ( ( _ U ( ( ( _ U ( ( ( H.J.+ K.Z & & + X X o o     o o O O X ",
"  o o . .     X X O O o + + 3 f 4 + r.K ( ( ( ) / ( ( ( ) / ( ( ( ( ( _ U ( ( ( _ U ( ( ( t.U + w.6 + + + X X o o     o o O O X ",
"  X X     o o O O o o X + w.4 v a + r.K ( ( ( ) / ( ( ( ) / ( ( ( ( ( _ U ( ( ( _ U ( ( ( t.U + w.4 4 4 + O O o o     o o . .   ",
"  X X     o o O O o o X + w.4 g.d + r.K ( ( ( ) / ( ( ( ) / ( ( ( ( ( _ U ( ( ( _ U ( ( ( t.U + w.4 4 4 + O O o o     o o . .   ",
". O O o o X X . . o o O + y.9 2 4 + r.K ( ( ( ) / ( ( ( ) / ( ( ( ( ( _ U ( ( ( _ U ( ( ( t.U + w.4 4 4 + . . . . o o X X . .   ",
". O O o o X X . . o o O + K.L.y.& + r.K ( ( ( ) / ( ( ( ) / ( ( ( ( ( _ U ( ( ( _ U ( ( ( t.U + w.p & & + . . . . o o X X . .   ",
".     o o O O X X X X . + w.P.S + + r.K ( ( ( ) / ( ( ( ) / ( ( ( ( ( _ U ( ( ( _ U ( ( ( t.U + w.6 + + + . .     X X O O     o ",
".     o o O O X X X X . + w.4 4 4 + r.K ( ( V.V.V.N.( ( ) / ( ( ( ( ( _ U ( ( ( _ U ( ( ( t.U + + 9 4 4 + . .     X X O O     o ",
". o o X X . . O O # # X + w.4 4 4 + r.K ( ( I.U.Y.T.( ( ) / ( ( ( ( ( _ U ( ( ( _ U ( ( ( t.U + Z G 8 f +     o o O O . . . . X ",
". o o X X . . O O # # X + L.6 5.4 + r.K ( ( ( N.S.( ( ( ) / ( ( ( ( ( _ U ( ( ( _ U ( ( ( t.U + w.4 E g +     o o O O . . . . X ",
"  X X O O . . X X o o # + 5 y q.w.+ r.K ( ( R.B.D.E.( ( ) / ( ( ( ( ( _ U ( ( ( _ U ( ( ( t.U + W.w.w.w.+ X X X X O O     . .   ",
"  X X O O . . X X o o # + w.4 & + + r.K ( ( V.V.V.N.( ( ) / ( ( ( ( ( _ U ( ( ( _ U ( ( ( t.U + + + + + + X X X X O O     . .   ",
"  # # . . . . O O X X o + w.4 4 4 + r.K I.V.( ) / I.V.( ) / ( ( ( ( ( _ U ( ( ( _ U ( ( ( t.U + w.4 4 4 + O O . . X X o o       ",
"  # # . . . . O O X X o + w.4 4 4 + r.K I.V.( ) / I.V.( ) / ( ( ( ( ( _ U ( ( ( _ U ( ( ( t.U + w.4 4 4 + O O . . X X o o       ",
"X o o     . .     o o X + L.6 6 6 + r.K Q.!.S.~.^./.!.( ) / ( ( ( ( ( _ U ( ( ( _ U ( ( ( t.U + (.8 h 6 + O O . . . . X X o o X ",
"X o o     . .     o o X + ).6 6 6 + r.K ( ( _.`.^.'.( ( ) / ( ( ( ( ( _ U ( ( ( _ U ( ( ( t.U + ].e.[.6 + O O . . . . X X o o X ",
"O X X o o     o o X X O + w.4 4 4 + r.K ( ( ( ) / ( ( ( ) / ( ( ( ( ( _ U ( ( ( _ U ( ( ( t.U + K...{.4 + . . . . o o . . o o O ",
"O X X o o     o o X X O + }.|.4 4 + r.K ( ( ( ) / ( ( ( ) / ( ( ( ( ( _ U ( ( ( _ U ( ( ( t.U + w.4 |.F.+ . . . . o o . . o o O ",
". O O X X o o X X O O . + F.Z.4 4 + r.K ( ( ( ) / ( ( ( ) / ( ( ( ( ( _ U ( ( ( _ U ( ( ( t.U + w.4 8 f + . . o o X X X X X X . ",
". O O X X o o X X O O . + 8 =.6 6 + r.K ( ( ( ) / ( ( ( ) / ( ( ( ( ( _ U ( ( ( _ U ( ( ( t.U + L.e.E g + . . o o X X X X X X . ",
"o . . O O o o O O X X o + i j. X X+ r.K ( ( ( ) / ( ( ( ) / ( ( ( ( ( _ U ( ( ( _ U ( ( ( .XXX+ oX X X X+ . . o o O O X X O O o ",
"o . . O O o o O O X X o + K.2 4 4 + r.K ( ( ( ) / ( ( ( ) / ( ( ( ( ( _ U ( ( ( _ U OXOXOX+XV.+ w.5.....+ . . o o O O X X O O o ",
"X o o . . X X . .     X + w.4 C.F.+ r.K ( ( ( ) / ( ( ( ) / ( ( ( ( ( _ U ( ( ( _ U V.V.V.V.V.+ w.4 |.F.+ o o # # X X O O . . X ",
"X o o . . X X . .     X + w.4 @X#X+ r.K ( ( ( ) / ( ( ( ) / ( ( ( ( ( _ U ( ( ( _ U V.V.V.V.V.+ w.4 $X#X+ o o # # X X O O . . X ",
". O O o o O O     o o O + K...W.a + r.K ( ( ( ) / ( ( ( ) / ( ( ( ( ( _ U ( ( ( _ U OXOXOX+XV.+ K.2 d a + o o O O # # X X . . . ",
". O O o o O O     o o O + oX XZ h + r.K ( ( ( ) / ( ( ( ) / ( ( ( ( ( _ U ( ( ( _ U ( ( ( .XXX+ oX X9 h + o o O O # # X X . . . ",
"  . . X X . . o o X X . + w.4 p 6 + r.K ( ( ( ) / ( ( ( ) / ( ( ( ( ( _ U ( ( ( _ U ( ( ( t.U + w.- 6 6 + X X O O . . X X       ",
"  . . X X . . o o X X . + w.E %X4 + r.K ( ( ( ) / ( ( ( ) / ( ( ( ( ( _ U ( ( ( _ U ( ( ( t.U + w.4 4 4 + X X O O . . X X       ",
"  . . O O o o X X O O . + w.A.&X4 + r.K ( ( ( ) / ( ( ( ) / ( ( ( ( ( _ U ( ( ( _ U ( ( ( t.U + w.4 4 4 + . . . . X X o o X X   ",
"  . . O O o o X X O O . + K.L.y ..+ r.K ( ( ( ) / ( ( ( ) / ( ( ( ( ( _ U ( ( ( _ U ( ( ( t.U + w.7 v ..+ . . . . X X o o X X   ",
"o     . . X X O O . .   + y.9 9 9 + r.K ( ( ( ) / ( ( ( ) / ( ( ( ( ( _ U ( ( ( _ U ( ( ( t.U + ).*X- 9 + O O . .     o o O O o ",
"o     . . X X O O . .   + w.4 4 4 + r.K ( ( ( ) / ( ( ( ) / ( ( ( ( ( _ U ( ( ( _ U ( ( ( t.U + L.6 =Xg + O O . .     o o O O o ",
"O o o     o o o o       + Z G 4 4 + r.K ( ( ( ) / ( ( ( ) / ( ( ( ( ( _ U ( ( ( _ U ( ( ( t.U + w.E -Xf + X X     o o X X . . O ",
"O o o     o o o o       + + 9 4 4 + r.K ( ( ( ) / ( ( ( ) / ( ( ( ( ( _ U ( ( ( _ U ( ( ( t.U + w.P.;X4 + X X     o o X X . . O ",
". O O o o X X . . o o O + 8 =X+ + + r.K ( ( ( ) / ( ( ( ) / ( ( ( ( ( _ U ( ( ( _ U ( ( ( t.U + + 3 ;X4 + X X     X X O O     . ",
". O O o o X X . . o o O + R =.w.w.+ r.:X>X>X>X,XL >X>X>X,XL >X>X>X>X>XP U >X>X>XP U >X>X>X) U + W.i <Xy + X X     X X O O     . ",
". O O o o . . O O X X o + p %X4 4 + 1XJ J J J J J J J J J J J J J J J J J J J J J J J J J J J + w.- 2X=X+ o o X X O O . . o o . ",
". O O o o . . O O X X o + G C.& & + + + + + + + + + + + + + + + + + + + + + + + + + + + + + + + Z & A S + o o X X O O . . o o . ",
"  . . X X . . . . X X o + + + + + + + + + + + + + + + + + + + + + + + + + + + + + + + + + + + + + + + + + O O X X . . o o X X   "
};
