/* XPM */
static char *Exit11679479109[] = {
/* columns rows colors chars-per-pixel */
"64 64 148 2 ",
"   c #36332E",
".  c #39352C",
"X  c gray19",
"o  c #3A3A3A",
"O  c #453B27",
"+  c #4C3F25",
"@  c #433A29",
"#  c #57441D",
"$  c #59451C",
"%  c #5E491D",
"&  c #7B5F06",
"*  c #7E570A",
"=  c #634915",
"-  c #654C1A",
";  c #684D18",
":  c #6B501C",
">  c #745415",
",  c #7A5711",
"<  c #7E5A10",
"1  c #755618",
"2  c #4A7C1F",
"3  c #587418",
"4  c #51781C",
"5  c #786B0B",
"6  c #626E13",
"7  c #717F15",
"8  c #554421",
"9  c #575F32",
"0  c #5A513F",
"q  c #6E5522",
"w  c #695926",
"e  c #6A5428",
"r  c #725720",
"t  c #635333",
"y  c #477E21",
"u  c #487D20",
"i  c #49752B",
"p  c #55792E",
"a  c #4A6B33",
"s  c #4C623D",
"d  c #506A3D",
"f  c #507834",
"g  c #507139",
"h  c #6A6438",
"j  c gray31",
"k  c #4E5C46",
"l  c #4F524C",
"z  c #555046",
"x  c #53504A",
"c  c #545454",
"v  c #5A5A5A",
"b  c #506342",
"n  c #556D45",
"m  c #54624A",
"M  c #58664E",
"N  c #59684E",
"B  c #557140",
"V  c #5D744D",
"C  c #596650",
"Z  c #5F6C51",
"A  c #5E6458",
"S  c #617C4E",
"D  c #717D43",
"F  c #606B57",
"G  c #62665E",
"H  c #667A54",
"J  c #64715B",
"K  c #627252",
"L  c #626262",
"P  c #6B6B6B",
"I  c #6A7165",
"U  c #737373",
"Y  c #7A7F76",
"T  c #7A7A7A",
"R  c #855901",
"E  c #8A5C01",
"W  c #875E0C",
"Q  c #885E0A",
"!  c #866106",
"~  c #8C610A",
"^  c #946301",
"/  c #986704",
"(  c #9D6901",
")  c #A36D01",
"_  c #837E73",
"`  c #5B871B",
"'  c #698E1E",
"]  c #518F25",
"[  c #50822E",
"{  c #518829",
"}  c #519322",
"|  c #5C9C2E",
" . c #578239",
".. c #5A813F",
"X. c #5B9730",
"o. c #639E39",
"O. c #5DA52A",
"+. c #66A03D",
"@. c #70B73F",
"#. c #608547",
"$. c #63814D",
"%. c #678D4D",
"&. c #6C9A4D",
"*. c #6C934A",
"=. c #78964E",
"-. c #6E8954",
";. c #698158",
":. c #6B8453",
">. c #769855",
",. c #7B9F57",
"<. c #729659",
"1. c #74AE4C",
"2. c #7ABC4C",
"3. c #76B34C",
"4. c #7EA756",
"5. c #7E827A",
"6. c #768666",
"7. c #7CC14B",
"8. c #7FCA4B",
"9. c #919D2E",
"0. c #92A432",
"q. c #81B039",
"w. c #81AC57",
"e. c #85B557",
"r. c #8ABE58",
"t. c #80847D",
"y. c #97BE7A",
"u. c #80CC4B",
"i. c #8FC65A",
"p. c #90C959",
"a. c #96D45A",
"s. c #99D95A",
"d. c #9DE15B",
"f. c #A3E364",
"g. c #848484",
"h. c #8A8C87",
"j. c #8D8D8D",
"k. c #8F918E",
"l. c #949494",
"z. c #9D9D9D",
"x. c #A5A5A5",
"c. c #ABABAB",
"v. c #B2B2B2",
"b. c #BABABA",
"n. c #A5C78D",
"m. c #C3C3C3",
"M. c #CDCDCD",
"N. c #D8D8D8",
/* pixels */
"O.} } u.u.} } } } u.u.d.d.} } d.d.y y a.a.n c c v v v c v j v ..| a.d.8.8.{ 2 8.u.d.d.} } u.u.{ 2 d.d.8.u.u u u.u.} } d.d.u.u.O.",
"O.O.O.y y @.@.O.O.y y u.u.O.O.d.d.} } ;.N 5.P P l.l.l.l.l.A g.I k #.@.8.8.u.8.} } u.u.d.d.} } d.d.2 y } } u.u.O.O.d.d.@.@.} } O.",
"O.O.O.y y @.@.O.O.y y u.u.O.O.d.d.k m g.b.v.U U x.x.c.M.x.L l.z.l.Y m H 8.8.8.} } u.8.d.d.} } d.d.y y } } u.u.O.O.d.d.@.@.} } O.",
"d.} } } } d.d.u.u.} } } } } [ b b k.v.T m.b.U U v.m.c.N.x.L l.x.g.T j.5.b d } 8.u.} } } } u.u.d.d.} } } } d.d.} } } } u.u.} } d.",
"d.} } } } d.d.u.u.} } } } [ k L x.c.b.j.g.T v C T g.U g.U v P U T l.c.b.t.j b 7.8.} } } } u.8.d.d.} } } } s.d.} } } } u.u.} } d.",
"d.O.O.d.d.y y y y d.d.d.e.H T 5.l.x.x.g.v b g %.%.>.>.g g %.%.N P j.c.v.T t.l.n i d.d.} } y u 0.9.' 7 7 ' u.u.d.d.d.d.y u } } } ",
"d.O.O.d.d.y y y y d.d.r.6.j.v.z.U t.g.V B [ } 8.u.d.d.} } u.u.4.-.J g.g.U c.m.g.n p.d.{ p 6 6 E E ^ ^ E 5 q.u.d.d.d.d.y y } } } ",
"u.d.d.u.u.} } } } } { H g.v.b.l.l.m m 2.8.d.d.} } u.u.} } d.d.{ { f k Z l.l.c.l.T <.3.=.t R E R ) ) ) E E 5 ` 4 u u.u.} } } } d.",
"8.d.d.8.8.} } } } { J j.T T 5.Z B O.O.8.8.d.d.} } u.u.} } d.d.y y } } ] b K k.v z._ z q E ^ ) E ) ) ) ^ E E E 5 3 u.u.} } } } d.",
"O.d.d.y y d.d.d.i.C b.v.z.t.d 8.u.d.d.{ y 8.8.d.d.} } } } d.d.u.8.O.O.d.d.7.M l l r E R E ) ( E ) ) ) ^ E ) ) R R y y u.u.} } u.",
"O.d.d.y y d.d.d.A j.P v v n } 8.u.d.d.y y 8.8.d.d.} } } } d.d.u.8.O.O.d.s.8.7.k 1 ^ ) ^ E ) ) R ) ) ) ^ ^ ) ( R R y y u.u.} } u.",
"} 8.8.d.d.y { 8.v l.x.x.U $.8.d.d.y y } } } } d.d.} } d.d.u.u.y { d.d.8.8.y { k 1 / ) / E ) ( E ) ) ) E ^ ) ( R R } } d.d.u.u.y ",
"} 8.8.d.d.[ 2 8.v l.M.b.U $.8.d.d.y y } } } } d.d.} } d.d.u.u.y y d.d.8.8.{ { k 1 ^ ) / E ) ( E ) ) ) ^ E ) ( R R } } d.d.u.u.y ",
"d.y ] 8.8.} } O.j v z.c.U s { 8.u.d.d.O.O.} } } } d.d.u.u.y y } } d.d.y y 8.8.N 1 / ) / E ) ) E ) ) ) ^ ^ ) ( R R } } d.d.u.u.O.",
"d.y y 8.8.} } O.c T U U v s 2 8.u.d.d.O.O.} } } } d.d.u.u.y y } } d.d.y y 8.8.N 1 / ) ^ E ) ) E ) ) ) ^ ^ ) ( R R } } d.d.u.u.O.",
"8.d.d.} } O.O.8.v l.j.g.L a } } } u.u.d.d.d.d.O.O.d.d.y y } } u.8.8.8.y y } } n 1 ^ ) / E ) ) E ) ) ) E ^ ) ( R R d.d.u.u.} } O.",
"8.d.d.} } O.O.8.v l.b.v.U d } } } 8.8.d.d.d.d.O.O.d.d.} y } } u.8.8.8.{ { } } Z > / ) ^ E ) ) R ) ) ) ^ E ) ) R R s.d.u.u.} } O.",
"} d.d.8.8.d.d.y j T z.k.L -.d.8.8.y y } } 8.8.O.O.8.8.} } d.d.y { 8.8.d.s.} } Z > / ) / E ) ( E ) ) ) ^ ^ ) ) R R u.u.y y } } O.",
"} d.d.8.8.d.d.y j P L L c -.d.8.8.y y } } 8.8.O.O.8.8.} } d.d.y u 8.8.d.d.} } Z : ~ ) / E ) ) R ) ) ) ^ ^ ) ( R R u.u.2 y } } O.",
"O.y y d.d.8.8.8.v b.b.c.U $.8.[ { } } } } O.O.8.8.y y d.d.u.u.y u } } 8.8.d.d.k o ; / ( E ) ) R ) ) ) ^ E ) ( R R u.u.] } O.O.O.",
"O.y y d.d.8.8.8.c l.M.b.I V 8.2 y } } } } O.O.8.8.y y d.d.8.8.y u } } 8.8.d.d.k o X - ^ E ) ) E ) ) ) ^ E ) ( R R u.u.} } O.O.O.",
"O.8.8.d.d.] y 8.v l.c.c.U s { } } } } O.O.d.d.} } d.d.8.8.y y d.d.} } } } d.d.b o X   $ E ) ) E ) ) ) ^ ^ ) ( R R y y } } d.d.O.",
"O.8.8.d.d.y y 8.v l.L l l b { } } } } O.O.d.d.} } d.d.8.8.y y d.d.} } } } d.s.k o > ) / E ) ( E ) ) ) ^ ^ ) ) R R y y } } d.d.O.",
"8.d.d.y y } } O.c v c.x.P -.d.8.8.O.O.d.d.8.8.} } d.d.y y } } } } 8.8.d.d.2 [ C : ^ ) / E ) ) E ) ) ) ^ ^ ) ( R R } } u.u.u.u.} ",
"8.d.d.} y } } O.k h.c.m.g.-.d.8.8.O.O.d.d.8.8.} } d.d.] ] } } } } 8.8.d.d.} u b 1 / ) / E ) ) R ) ) ) E ^ ) ( R R } } u.u.u.u.} ",
"O.d.s.} } O.O.u.c l.x.v.T $.8.} } d.d.8.8.@.@.} } 8.8.} } O.O.} } } } 8.8.d.d.k > / ) / E ) ( E ) ) ) ^ ^ ) ( R R O.O.d.d.y y u.",
"O.d.d.} } O.O.u.c P U k.U $.8.} } d.d.8.8.@.@.} } 8.8.} } O.O.} } } } 8.8.d.d.k > / ) / E ) ) E ) ) ) ^ E ) ( R R O.O.d.d.y y u.",
"O.8.8.O.O.d.d.y c P g.g.L a } } } d.d.} y y y 8.8.y y O.O.d.d.8.8.} } y y d.d.k > / ) / E ) ) E ) ) ) ^ ^ ) ( R R O.O.d.d.} } O.",
"O.8.8.O.O.d.d.y v l.m.l.v d } } } d.d.y y y y 8.8.y y O.O.d.d.8.8.} } y y d.d.k 1 / ) / E ) ) R ) ) ) / ^ ) ( R R O.O.d.d.} } O.",
"} y y d.d.8.8.} v l.x.c.U $.8.d.d.y y } } } } @.@.y y O.O.d.d.} } O.O.} } y y n > / ) / E ) ) E ) ) ) ^ E ) ( R R d.d.u.u.} } O.",
"} y y d.d.8.8.} c g.l.z.U $.8.d.d.y y } } } } @.@.y y O.O.d.d.} } O.O.} } y y M > / ) / E ) ( E ) ) ) ^ ^ ) ( R R d.d.u.u.} } O.",
"} O.O.d.d.} y 8.c c v g.P b { 8.8.d.d.O.O.} } @.@.d.d.d.d.8.8.O.O.8.8.d.d.y y Z > / ) / E ) ) R ) ) ) ^ ^ ) ( R R u.u.y y O.O.d.",
"} O.O.d.s.y { 8.v k.z.U j s y 8.u.d.d.O.O.} } @.@.d.d.d.d.u.u.O.O.8.8.d.d.y y V 1 / ) / E ) ) R ) ) ) ^ ^ ) ( R R u.u.y y O.O.d.",
"} d.d.8.8.} } 2 c l.x.z.P a } y y u.u.d.d.O.O.} } d.d.@.@.d.d.O.O.{ 2 8.8.d.d.k > / ) / E ) ( E ) ) ; O ; ) ( R R y y } } } } u.",
"} d.d.8.8.} } [ v l.x.x.U d } ] y u.u.d.d.O.O.} } d.d.@.@.d.d.O.O.y y 8.8.d.d.k > / ) / E ) ) E ) ) / 8 . ; ( R R y y } } } } u.",
"O.8.8.y y } } 8.c P U U v d } 8.u.y y d.d.O.O.u.u.y y y y u.8.d.d.} } O.O.y y N > / ) / E ) ) E ) ) ) % + W ( R R y y O.O.} } O.",
"O.8.8.] y } } 8.c T t.g.L d } 8.u.y y d.d.O.O.u.u.y y y ] 8.8.d.d.} } O.O.{ y m 1 / ) / E ) ) R ) ) , @ % ) ( R R y y O.O.} } O.",
"O.@.@.} } } } y v l.x.x.U $.8.3.@.} } } } d.d.u.u.} } } } O.O.d.d.O.O.d.d.8.8.m > / ) / E ) ) E ) W - # = W ( R R u.u.d.d.O.O.O.",
"O.@.@.} } } } y v x.c.x.U $.8.@.@.} } } } d.d.u.u.} } } } O.O.d.d.O.O.d.d.8.8.N > / ) / E ) ( E ) O > ^ = % ( R R u.u.d.d.O.O.O.",
"8.d.d.O.O.} } O.v m.x.l.P -.d.y y } } } } d.d.y y } } d.d.8.8.8.8.O.O.d.d.y y k > / ) / E ) ) R ) 8 > * = ; ( R R } } u.u.d.d.u.",
"8.d.d.O.O.} } O.v c.U L c -.d.{ y } } } } d.d.y u } } d.d.8.8.8.8.O.O.d.d.{ y k - ! ) / E ) ) E ) ) ; @ ; ) ( R R } } u.u.d.d.u.",
"y 8.8.d.d.O.O.d.j j l.c.U -.d.} } d.d.u.u.u.u.} } O.O.d.d.u y y { d.d.8.8.} } k o > ) / E ) ) E ) ) ) ^ ^ ) ( R R d.d.} } d.d.y ",
"y 8.8.d.d.O.O.d.c l.x.c.U -.d.} } d.d.u.u.u.u.} } O.O.d.d.y y y y d.d.8.8.} } k o X - ^ E ) ( E ) ) ) E ^ ) ( R R d.d.} } d.d.y ",
"} y y 8.8.d.d.8.v l.x.m.g.$.8.u.u.u.u.d.d.y y } } d.d.8.8.8.8.} } d.d.y y d.d.m o X   # E ) ) E ) ) ) ^ ^ ) ( R R u.u.u.u.u.u.} ",
"} y y 8.8.d.d.8.j L L c.g.#.u.u.u.u.u.d.d.y y } } d.d.8.8.8.8.} } d.d.y y d.d.k o - ~ E E ) ) R ) ) ) / E ) ( R R u.u.u.u.u.u.} ",
"d.} } y ] d.d.y c h.l.T v a } u.u.} } d.d.} } O.O.d.d.{ ] @.@.8.8.@.@.y y 8.8.V - ^ ) / E ) ( E ) ) ) ^ ^ ) ( R R y y u.u.y y d.",
"d.} } y y d.d.y v l.c.k.L d } u.u.} } d.d.} } O.O.d.d.y y @.3.8.8.@.@.y y 8.8.N 1 / ) ^ E ) ) E ) ) ) ^ ^ ) ( R R y y u.u.y y d.",
"8.d.d.} } 8.8.} c l.m.v.U -.d.} } d.d.u.u.u.u.O.O.8.8.} } } } s.d.8.8.} } } } n 1 / ) / E ) ) E ) ) ) ^ ^ ) ( R R u.u.y y } } u.",
"8.d.d.} } 8.8.} m Y z.l.L -.d.} ] s.w.&.&.&.&. . .&.&.f f f f 4.4.&.&.f f } } m > / ) / E ) ( E ) ) ) ^ E ) ( R R u.u.u u } } u.",
"} y y d.d.y y O.l I U U v J 4.f f ,.L P P P P P U U U U P c j v v L v P v 4.4.x > / ) / E ) ) E ) ) ) ^ ^ ) ( R R @.@.u.u.} } } ",
"} ] y d.d.y y O.c l.x.x.U j j j j v U j.k.k.l.z.x.x.z.x.l.P v L P U T j.T j c j 1 / ) / E ) ) R ) ) ) ^ ^ ) ( R R @.@.u.u.} } } ",
"O.} } 8.8.} } d.c h.x.x.U c L L L g.g.g.t.j.l.l.j.g.l.z.x.l.l.U v L U T U c L c > / ) / E ) ( E ) ) ) E ^ ) ( R R } } u.u.O.O.O.",
"O.} } 8.8.} } d.j j l.c.U U x.x.x.j j j j j j j j v j.j.x.x.l.j.l.U j c U c U v 1 / ) / E ) ) E ) ) ) ^ ^ ) ( R R } } u.u.O.O.O.",
"O.} } y y d.d.8.v b.U v c U v.b.x.m.c.x.x.c.x.x.c.l.v v v v c v v v v v j c v c , ^ ) / E ) ) E ) ) ) ^ ^ ) ( R R u.u.d.d.u.u.O.",
"O.} } y y d.d.8.v z.z.z.U U c.c.x.x.x.b.c.b.v.x.x.x.z.z.z.z.z.z.z.z.j.c j j j j > / ) / E ) ) E ) ) ) ^ ^ ) ( R R u.u.d.d.u.u.O.",
"d.O.O.} } 8.8.y v b.c.x.U c L v L L L P L L L v L L v L L v L L L L v j j j j j > E / ^ E ) ( R ) ) ) ^ E ) ( R R O.O.d.d.u u d.",
"d.O.O.} } 8.8.y j P L L c j j j l l j j j j j j j l l l j j l l j j l j j j j j z 0 : E E ) ( E ) ) ) E ^ ) ( R R O.O.d.d.y y d.",
"y d.d.O.O.d.d.d.4. . . . .4.4.4.4.[  .f f a a 1.4.f f &.&.f i *.&.f f 4.4.4.4.&.&.a a 1 E / ) E ) ) ) ^ ^ ) ( R R d.d.u.u.} } y ",
"y d.d.O.O.d.d.d.d.O.O.O.O.d.d.d.d.O.O.} ] { y d.d.] } 8.8.} } 8.u.} } d.d.d.d.8.8.[ i D e 1 ^ R ) ) ) ^ ^ ) ( R R d.d.u.u.} } y ",
"} y y d.d.8.8.} } d.d.y [ d.d.8.8.d.d.O.O.8.8.d.d.8.8.d.d.O.O.d.d.3.@.d.d.@.@.2 y } } 1.K z q q / / ( ^ E ) ( R R u.u.y y O.O.} ",
"} y y d.d.8.8.} } d.d.y 2 d.d.8.8.d.d.O.O.8.8.d.d.8.8.d.d.O.O.d.d.@.@.d.d.@.@.{ { } } 8.2.H S V , 1 Q ^ ^ ) / R R u.u.y y O.O.} ",
"} y y d.d.} } ] y 8.8.d.d.8.8.y y d.d.O.O.d.d.} } d.d.[ y O.O.@.@.d.d.@.@.2 y s.d.+.| } } 8.8.y k k w , W ( / R R y y } } d.d.} ",
"} y y d.d.} } y y 8.8.d.d.8.8.{ y d.d.O.O.d.d.} } d.d.y { O.O.@.@.d.d.@.@.y y d.d.n.y.} } 8.8.2 { } d N h , , , , y y } } d.d.} ",
"O.} } 8.8.} } } } 8.8.d.d.} } d.d.y { d.d.} } 8.8.d.d.@.@.O.O.O.O.d.d.8.8.y y 8.8.f.f.} } 8.8.2 2 d.s.7.*.z z z x } } d.d.u.u.O."
};
