/* XPM */
static char *Floor1679479109[] = {
/* columns rows colors chars-per-pixel */
"64 64 6 1 ",
"  c #5DA52A",
". c #519322",
"X c #80CC4B",
"o c #9DE15B",
"O c #477E21",
"+ c #70B73F",
/* pixels */
" ..XX....XXoo..ooOOoo..XXoo++    ooXXOOXXoo..XXOOooXXOOXX..ooXX ",
"   OO++  OOXX  oo..oo..ooOO    OO++XXXX..XXoo..ooOO..XX  oo++.. ",
"   OO++  OOXX  oo..oo..ooOO    OO++XXXX..XXoo..ooOO..XX  oo++.. ",
"o....ooXX........XX..XXoo......XXoo....XX....XXoo....oo....XX..o",
"o....ooXX........XX..XXoo......XXoo....XX....XXoo....oo....XX..o",
"o  ooOOOOoooo  XX    ..XXoo..XXooOO..  OOoo..OOoo    XXooooOO...",
"o  ooOOOOoooo  XX    ..XXoo..XXooOO..  OOoo..OOoo    XXooooOO...",
"XooXX......XXoooo  XXoo..XX..ooOO..  oo..XXooOOXX  oo..OOXX....o",
"XooXX......XXoooo  XXoo..XX..ooOO..  oo..XXooOOXX  oo..OOXX....o",
" ooOOoooo  ....XXooOOXXoo....ooXX  ooXX..  oo..  ooOOooXXOOXX..X",
" ooOOoooo  ....XXooOOXXoo....ooXX  ooXX..  oo..  ooOOooXXOOXX..X",
".XXooOOXXoo  XXooOO....oo..ooXXOOooXXOO  ooXX  ooXX....oo..ooXXO",
".XXooOOXXoo  XXooOO....oo..ooXXOOooXXOO  ooXX  ooXX....oo..ooXXO",
"oOOXX..  XXooOOXXoo  ....ooXXOO..ooOOXXXXooOOXXooXXXXXXoo..ooXX ",
"oOOXX..  XXooOOXXoo  ....ooXXOO..ooOOXXXXooOOXXooXXXXXXoo..ooXX ",
"Xoo..  XXOOXX....XXoooo  ooOO..XXXXOO..ooOO..ooOOXXOOoo..ooXX.. ",
"Xoo..  XXOOXX....XXoooo  ooOO..XXXXOO..ooOO..ooOOXXOOoo..ooXX.. ",
".ooXXooOO....ooXXOO..XX  XX..ooOOXXoo..ooXXooOO..  ..oo..XXOO.. ",
".ooXXooOO....ooXXOO..XX  XX..ooOOXXoo..ooXXooOO..  ..oo..XXOO.. ",
" OOooXXXX..ooXXOO....  XXOOooXXOO..XXoo..OOoo....oo  OOooXX..   ",
" OOooXXXX..ooXXOO....  XXOOooXXOO..XXoo..OOoo....oo  OOooXX..   ",
" XXooOOXXooXXOO....  oo..ooXXOOoo....oo  ..OOoo..XXoo..XXOO..oo ",
" XXooOOXXooXXOO....  oo..ooXXOOoo....oo  ..OOoo..XXoo..XXOO..oo ",
"XooOO..  oo..ooXX  ooXX..ooOO....XXooOOXX  ooXX..OOXXooOO..XXXX.",
"XooOO..  oo..ooXX  ooXX..ooOO....XXooOOXX  ooXX..OOXXooOO..XXXX.",
" oo..  XXOOooXX..ooXX++..XX..  ....XXooOOooXXOO  ..OOXXoo  ooOOX",
" oo..  XXOOooXX..ooXX++..XX..  ....XXooOOooXXOO  ..OOXXoo  ooOOX",
" XX  ooOOooXX....ooOOOOXXOO  ooXX..OOoo..ooXX..  XXooOOoo  oo.. ",
" XX  ooOOooXX....ooOOOOXXOO  ooXX..OOoo..ooXX..  XXooOOoo  oo.. ",
".OOooXX..ooOOXXooOO....++OO  oo..  ..OOXXOO..ooooOO......ooXX.. ",
".OOooXX..ooOOXXooOO....++OO  oo..  ..OOXXOO..ooooOO......ooXX.. ",
".  ooOOXXXX..OOXXoo  ..++ooooXX  XXooOOooOO..OOXXoo....  XXOO  o",
".  ooOOXXXX..OOXXoo  ..++ooooXX  XXooOOooOO..OOXXoo....  XXOO  o",
".ooXX..OO++XX..OOXXoo  ..oo++oo  OOXXoo......  XXXXoo  ooOO....X",
".ooXX..OO++XX..OOXXoo  ..oo++oo  OOXXoo......  XXXXoo  ooOO....X",
" XXOO..XXoo++..XXOOoo  XXOOOOXXoo..  OOXX    ooooOOooXXXXOO  .. ",
" XXOO..XXoo++..XXOOoo  XXOOOOXXoo..  OOXX    ooooOOooXXXXOO  .. ",
" ++....OOXXooXX++....ooXX....  oo  ooXX++ooooXXOO..XXOO..XXoo   ",
" ++....OOXXooXX++....ooXX....  oo  ooXX++ooooXXOO..XXOO..XXoo   ",
"Xoo  ..  ooXXooOO....ooOO..ooXXXX  ooOOOOooXX......XXOO....XXooX",
"Xoo  ..  ooXXooOO....ooOO..ooXXXX  ooOOOOooXX......XXOO....XXooX",
"OXXoo  ooXXOOoo..ooXXXX..  ooOOOOooXX....++OOXXooXXOO....oo..ooO",
"OXXoo  ooXXOOoo..ooXXXX..  ooOOOOooXX....++OOXXooXXOO....oo..ooO",
".OOXXooXXOO..XXXXXXooOO..ooXXXX..ooOOoo..XXOO..XXooOO..ooXXXXXX.",
".OOXXooXXOO..XXXXXXooOO..ooXXXX..ooOOoo..XXOO..XXooOO..ooXXXXXX.",
"o..OOooOOXXoo..XX..oo..  ooOO++XX++OOXXoooo......XXoo..ooOOXXOOo",
"o..OOooOOXXoo..XX..oo..  ooOO++XX++OOXXoooo......XXoo..ooOOXXOOo",
"Xoo..XX..  XXoo..ooXXXX  XX....ooXX....++XXoo..ooOOXXoo++XXOO..X",
"Xoo..XX..  XXoo..ooXXXX  XX....ooXX....++XXoo..ooOOXXoo++XXOO..X",
".OOooOO  ooOOoo..ooOOXXooOO..  ooXX..ooOO..++ooXX..XXooOO++XX...",
".OOooOO  ooOOoo..ooOOXXooOO..  ooXX..ooOO..++ooXX..XXooOO++XX...",
" ..XX..ooXX..XXooXXOO..XXoo  ooXX..ooXXOO..++XXOO..OOXXOO..XX   ",
" ..XX..ooXX..XXooXXOO..XXoo  ooXX..ooXXOO..++XXOO..OOXXOO..XX   ",
" ..OOooXXOO....XXOO..XX..XXooXXOOoo++OO..    oo  ..  ....XXooXX ",
" ..OOooXXOO....XXOO..XX..XXooXXOOoo++OO..    oo  ..  ....XXooXX ",
"o  ..XXOO..    XX....ooXXOOooOO..ooXXOOooXXoo..    XXOO..  ooOOo",
"o  ..XXOO..    XX....ooXXOOooOO..ooXXOOooXXoo..    XXOO..  ooOOo",
"Ooo  oooo    oooo  ..OOoo..XX..XX..ooooXXOOoo  ooooXXXX  ooXX..O",
"Ooo  oooo    oooo  ..OOoo..XX..XX..ooooXXOOoo  ooooXXXX  ooXX..O",
".OOooXX..ooOOooXXoo  XXooXXoo  oo++oo++OO..XXooXXOO..XX  XXOO  .",
".OOooXX..ooOOooXXoo  XXooXXoo  oo++oo++OO..XXooXXOO..XX  XXOO  .",
".OOoo..OOXXooXXOOoo  oo..ooOO  ++oo++OOoo....XXOO..ooooXXOO..oo.",
".OOoo..OOXXooXXOOoo  oo..ooOO  ++oo++OOoo....XXOO..ooooXXOO..oo.",
" ..XX....XXoo..ooOOoo..XXoo++    ooXXOOXXoo..XXOOooXXOOXX..ooXX "
};
