/* XPM */
static char *ba8241287e674dffea8ba8763944e893vWtHiduWq3x8hq2K[] = {
/* columns rows colors chars-per-pixel */
"64 64 184 2 ",
"   c #000000",
".  c #0B0203",
"X  c #0B0B0B",
"o  c #050804",
"O  c #140203",
"+  c #1B0204",
"@  c #1C0907",
"#  c #0D1309",
"$  c #101B08",
"%  c #131313",
"&  c #1D1D1D",
"*  c #2B0206",
"=  c #230306",
"-  c #330207",
";  c #3B0207",
":  c #14230A",
">  c #3F1D21",
",  c #272727",
"<  c #2D2D2D",
"1  c #2B2727",
"2  c #3E2527",
"3  c #352A2B",
"4  c #3B2A2C",
"5  c #353434",
"6  c #393939",
"7  c #420208",
"8  c #4B040A",
"9  c #55020A",
"0  c #4E1419",
"q  c #501117",
"w  c #5C161C",
"e  c #63020B",
"r  c #6C030D",
"t  c #79030E",
"y  c #770F19",
"u  c #700B14",
"i  c #64181F",
"p  c #6B1119",
"a  c #77151E",
"s  c #492E18",
"d  c #4C3914",
"f  c #573915",
"g  c #692714",
"h  c #792714",
"j  c #6B3215",
"k  c #673C17",
"l  c #723116",
"z  c #7A361D",
"x  c #491E23",
"c  c #452427",
"v  c #294019",
"b  c #264311",
"n  c #384716",
"m  c #3A631A",
"M  c #3A6819",
"N  c #3F6326",
"B  c #504C17",
"V  c #5F4817",
"C  c #4F5117",
"Z  c #4A5818",
"A  c #445219",
"S  c #5E5019",
"D  c #494617",
"F  c #714017",
"G  c #69521C",
"H  c #44641B",
"J  c #49681B",
"K  c #546C1F",
"L  c #42751F",
"P  c #4B761D",
"I  c #734722",
"U  c #794020",
"Y  c #6D5B27",
"T  c #7A562A",
"R  c #477E21",
"E  c #5C7D2E",
"W  c #696A2C",
"Q  c #69642A",
"!  c #61782F",
"~  c #776E32",
"^  c #786830",
"/  c #787B36",
"(  c gray32",
")  c gray39",
"_  c #767676",
"`  c #83030F",
"'  c #8B020F",
"]  c #8D0411",
"[  c #8C0B17",
"{  c #860B17",
"}  c #950411",
"|  c #9B0311",
" . c #940A17",
".. c #980C19",
"X. c #971414",
"o. c #931C15",
"O. c #9C1E19",
"+. c #9F1114",
"@. c #861B14",
"#. c #A20211",
"$. c #AD0313",
"%. c #A30817",
"&. c #A80C15",
"*. c #B30213",
"=. c #BC0213",
"-. c #B40C15",
";. c #BA0B15",
":. c #A11415",
">. c #AB1618",
",. c #A71D1B",
"<. c #AB1315",
"1. c #B31316",
"2. c #B81719",
"3. c #8D2A17",
"4. c #93241A",
"5. c #972F1E",
"6. c #9A2C1E",
"7. c #992417",
"8. c #823117",
"9. c #A02E1E",
"0. c #883C23",
"q. c #933320",
"w. c #A22F21",
"e. c #A33723",
"r. c #C40214",
"t. c #CC0115",
"y. c #C80D17",
"u. c #D40215",
"i. c #DB0216",
"p. c #D50817",
"a. c #D20A18",
"s. c #C31319",
"d. c #E40116",
"f. c #EC0117",
"g. c #F40017",
"h. c #F70018",
"j. c #FF0018",
"k. c #884725",
"l. c #9E4627",
"z. c #98522B",
"x. c #4A841F",
"c. c #4D8C21",
"v. c #548724",
"b. c #519322",
"n. c #589C28",
"m. c #5D8C32",
"M. c #60802F",
"N. c #628F35",
"B. c #6D8C36",
"V. c #6B8436",
"C. c #6F9238",
"Z. c #669F38",
"A. c #7F923E",
"S. c #5DA52A",
"D. c #6AAC3C",
"F. c #70A73F",
"G. c #70B73F",
"H. c #7A9D42",
"J. c #71AB40",
"K. c #75B945",
"L. c #73B643",
"P. c #7CC549",
"I. c #7FCA4A",
"U. c #7AC247",
"Y. c #819A41",
"T. c #89BC4D",
"R. c #85B54B",
"E. c #80CC4B",
"W. c #8AC04F",
"Q. c #8DC651",
"!. c #8FCC53",
"~. c #94D556",
"^. c #9BDD5A",
"/. c #9DE15B",
"(. c #838383",
"). c gray55",
"_. c #969696",
"`. c #9A9A9A",
"'. c #B7B7B7",
"]. c #BABABA",
"[. c #A7A7A7",
"{. c gray85",
"}. c #D2D2D2",
"|. c #C8C8C8",
/* pixels */
"S.b.b.E.E.b.b.b.b.E.E././.b.b././.c.R /./.b.b.I.I././.J.m.j o.-.=.=.,.U V.L R E.E.^./.b.b.E.E.R R /./.E.E.R R E.E.b.b././.E.E.S.",
"S.S.S.R R G.G.S.S.R R E.E.S.S././.b.b././.b.b././.R A @.f.h.h.i.=.r.u.g.f.>.Q c.b.E.E././.b.b././.R R b.b.E.E.S.S././.G.G.b.b.S.",
"S.S.S.R R G.G.S.S.R R E.E.S.S././.b.b././.b.b./.Q.g f.j.i.e O         . 8 t.h.:.J I.I././.b.b././.R R b.b.E.E.S.S././.G.G.b.b.S.",
"/.b.b.b.b././.E.E.b.b.b.b.b.b.b.b.E.E.b.b.I.I.~.6.h.j.%.O                 . r h.a.Z b.b.b.E.E././.b.b.b.b././.b.b.b.b.E.E.b.b./.",
"/.b.b.b.b././.E.E.b.b.b.b.b.b.b.b.E.E.b.b.I.P.q.j.j.e             o           7 d.d.C b.b.E.E././.b.b.b.b././.b.b.b.b.E.E.b.b./.",
"/.S.S././.R R R R /./././.S.S.E.I.S.S.S.S.b.C f.j.'         X ) |.}.).&         9 j.p.H b.R R /./.S.S.S.S.E.E././././.R R b.b.b.",
"/.S.S././.R R R R /./././.S.S.E.I.S.S.S.S.c.r.j.$..       % [.(.& % ( ].,         ' j.;.x.R R /./.S.S.S.S.E.E././././.R R b.b.b.",
"E././.E.E.b.b.b.b.b.b.E.E././././.S.S.I.I.T j.j.;         ( ).        ( _.        + f.h.T R R I.E.S.S././.b.b.R R E.E.b.b.b.b./.",
"E././.E.E.b.b.b.b.b.b.E.E././././.S.S.I.P.2.j.=.          (.<         X `.          ' j.i.m R I.E.S.S././.b.b.R R E.E.b.b.b.b./.",
"S././.R R /./././.S.S.b.b.b.b.E.I././.R J i.j.e           (.,         X _.          * j.j.l b.S.S././.R R /./.E.E.R R E.E.b.b.E.",
"S././.R R /./././.S.S.b.b.b.b.E.I././.R D h.h.=           ) _         6 `.            f.j.y.x.S.S././.R R /./.E.E.R R E.E.b.b.E.",
"b.E.E././.R R E.E././.S.S.E.E././.R R b.f j.f.O           % '.) o   5 '.6             *.j.g.K /./.E.E.b.b.b.b././.b.b././.E.E.R ",
"b.E.E././.R R E.E././.S.S.E.E././.c.R b.l j.i..             % ).{.{.].5               ' j.j.j ^./.E.E.b.b.b.b././.b.b././.E.E.R ",
"/.R R E.E.b.b.S.S.E.E././.R R E.I./.^.S.h j.r.                  X %                   ` j.j.9././.E.E.E.E.E.E././.b.b././.E.E.S.",
"/.R R E.E.b.b.S.S.E.E././.R R E.I././.S.l j.$.                                        t j.j.=.^./.E.E.E.E.E.E././.b.b././.E.E.S.",
"E././.b.b.S.S.E.E.R R E.E.b.b.b.b.I.I./.T j.$.                                        ' j.j.t.L R E.E.R R /./.b.b././.E.E.b.b.S.",
"E././.b.b.S.S.E.E.R R E.E.b.b.b.b.E.E././ g.r.+                                       *.j.j.u.H R E.E.R R /./.b.b././.E.E.b.b.S.",
"b././.E.E././.R R b.b.b.b././.E.E.R R b.P d.i.7                                     o f.j.j.u.c.b.S.S.b.b././.b.b.E.E.R R b.b.S.",
"b././.E.E././.R R b.b.b.b././.E.E.R R b.x.s.f.#.                                    8 j.j.j.r.c.b.S.S.b.b././.b.b.E.E.R R b.b.S.",
"S.R R /./.E.E.E.E.b.b././.E.E.R R b.b.b.b.3.h.=.7                                 O | j.j.j.-.b.b././.S.S.R R /./.E.E.b.b.S.S.S.",
"S.R R /./.E.E.E.E.b.b././.E.E.R c.b.b.b.b.J h.#.=.O                               t f.j.j.j.h b.b././.S.S.R R /./.E.E.b.b.S.S.S.",
"S.E.E././.R R E.E././.E.E.R R b.c.b.b.S.S.~.1.f.r.}                             9 #.j.j.j.h.^ b.b.E.E././.b.b.E.E.R R b.b././.S.",
"S.E.E././.R R E.E././.E.E.R R b.b.b.b.S.S./.~ h.*.f.' .                       e $.g.j.j.j.p.T.b.b.E.E././.b.b.E.E.R R b.b././.S.",
"E././.R R b.b.S.S././.b.b././.E.I.S.S././.I.K.;.g.| g.$.+                 . ` u.=.j.j.j.j.5.P.b.b.R R E.E././.R R b.b.E.E.E.E.b.",
"E././.R R b.b.S.S././.b.b././.E.I.S.S././.E.I.s f.j.#.i.g.} - O     . * t d.r.r.j.j.j.j.d.N.I.b.b.R R E.E././.R R b.b.E.E.E.E.b.",
"S././.b.b.S.S.E.E.R R /./.E.E.b.b././.E.E.G.E p.$.g.j.r.$.i.h.d.#.i.d.f.r.#.u.j.j.j.j.h.U R R S.S.b.b.R R E.E././.S.S././.R R E.",
"S././.b.b.S.S.E.E.R R /./.E.E.b.b././.E.E.m.y.j.g.#.g.j.j.d.j.g.=.j.j.j.j.h.j.j.j.j.j.*.! R R S.S.b.b.R R E.E././.S.S././.R R E.",
"S.E.E.S.S././.R R /./.E.E.b.b.b.b././.R L X.j.j.j.g.#.f.g.t.g.f.=.j.j.d.*.$.h.j.j.j.u.=.-.c.b.S.S.E.E././.R R /./.S.S././.b.b.S.",
"S.E.E.S.S././.R R /./.E.E.b.b.b.b././.R g h.j.j.j.j.h.h.j.g.t.#.` $.=.i.j.j.j.j.j.f.r.j.j.j b.S.S.P.E.^./.R R /./.S.S././.b.b.S.",
"b.R R /./.E.E.b.b././.R R E.E././.R R H d.j.j.j.j.j.j.j.j.j.j.i.=.j.j.j.j.j.j.j.j.j.j.j.j.a.R././.c.R b.b.b.b.b.b././.E.E.b.b.S.",
"b.R R /./.E.E.b.b././.R R E.E././.R R &.j.j.j.j.j.j.j.j.j.j.j.u.t.j.j.j.j.j.j.j.j.j.j.j.j.h.k././.R R b.b.b.b.b.b././.E.E.b.b.S.",
"b.S.S././.R R E.E.E.E.b.b.R R E.E./.^ g.j.j.f.h.j.j.j.j.j.j.j.t.i.j.j.j.j.j.j.j.j.d.j.j.j.j.t.K.E././.b.b.b.b.S.S.E.E.R R S.S./.",
"n.S.S././.c.c.I.I.I.I.b.b.R R I.E.!.r.j.j.j.#.g.j.j.j.j.j.j.j.r.f.j.j.j.j.j.j.g.j.i.i.j.j.j.j.W I././.b.b.b.b.S.S.E.E.R R S.S./.",
"b././.I.I.b.b.M c.G.L.I.I.b.b.R R W j.j.j.j.$.j.j.j.j.j.j.j.j.r.h.j.j.=.#.#.| | d.g.#.j.j.j.j.4.P.I.E././.S.S././.R R b.b.b.b.E.",
"b././.I.I.b.b.c.R L.G.I.I.b.b.c.L >.j.j.j.*.f.j.j.j.j.j.j.j.j.=.j.j.j.=.j.j.j.u.r.j.$.j.j.j.j.i.J.I.E././.S.S././.R R b.b.b.b.E.",
"S.I.I.N c.b.b.I.I././.L.L.b.b.I.B.d.j.j.j.$.j.j.j.j.j.j.j.j.j.=.j.j.j.*.$.=.*.` f.j.d.r.j.j.j.g./ R c././.E.E.E.E.R R S.S.b.b.S.",
"S.I.I.R R b.b.I.I././.G.K.b.b.I.I j.j.j.f.t.j.j.j.j.j.j.j.j.j.=.j.j.j.r.f.j.j.u.u.j.j.#.j.j.j.j.0.R R /./.E.E.E.I.R c.S.S.b.b.S.",
"S.U.L.b.b.b.b.R R I.I././.E.I.L.7.j.j.j.u.d.j.j.j.j.j.j.j.j.j.=.j.j.j.u.u.j.j.$.g.j.j.=.j.j.j.j.+.b.b.I.E.R R b.b.I.P././.S.S.S.",
"S.G.L.b.b.b.b.R c.I.I././.E.I.L.-.j.j.j.$.g.j.j.j.j.j.j.j.j.j.=.j.j.j.g.$.| #.f.j.j.j.u.d.j.j.j.=.b.b.I.E.R R b.b.E.E././.S.S.S.",
"I././.S.S.b.b.S.S././.I.I././.R =.j.j.j.| j.j.j.j.j.j.j.j.j.j.=.j.j.j.j.j.j.j.j.j.j.j.d.t.j.j.j.u.b.b.I.E.R R b.b.b.b.E.E././.E.",
"I././.S.S.b.b.S.S././.E.E././.R @ | g.j.#.j.j.j.j.j.j.j.j.j.j.=.j.j.j.j.j.j.j.j.j.j.j.h.| j.j.j.i.b.b.P.I.R R b.b.b.b.E.E././.E.",
"x.I.I././.S.S././.E.E.R R /./.b.$   + - r h.j.j.j.j.j.j.j.j.j.=.j.j.j.j.j.j.j.j.j.j.i.{ q j.j.f.] I.I.R R b.b.b.b././.b.b././.R ",
"R I.I././.S.S././.E.E.R R /./.b.b       , 3 p r.g.j.j.j.j.j.j.=.j.j.j.j.j.j.g.i. .x 5 6 1 = =   o I.I.c.R b.b.b.b././.b.b././.R ",
"b.R R I.I././.I.E.R R b.b.E.E.E.D.o     < 6 6 5 2 w  .=.u.f.g.r.f.f.i.r...` 0 5 5 6 6 6 < o     # /./.R R b.b././.E.E.E.E.E.E.b.",
"b.R R I.I././.I.I.R R b.b.E.E.E.I.N     > 6 6 6 6 6 [ i 5 < < < < < 5 5 6 y a 6 6 6 6 4 y *     v /./.R c.c.b././.E.E.E.E.E.E.b.",
"/.b.b.R c././.R R I.I././.b.b.E.I.b.$ . f.y 3 6 6 6 ..c 6 6 6 6 6 6 6 6 6 i ..6 3 c [ d.j.e     m I.I././.b.b././.R R E.E.R R /.",
"/.b.b.R R /./.R c.I.E././.b.b.E.I.b.c.s j.j.f.$.w c ` 2 6 6 6 6 6 5 5 5 4 q ] $.d.j.j.j.j.'   : c.I.I././.b.b././.R R E.E.R R /.",
"I././.b.n.I.I.b.b.S.S.E.E././.b.b././.Y j.j.j.j.j.g.i.r.%. .[ { u %.r.p.f.h.j.j.j.j.j.j.j.#.o R./.R c.E.I././.L.L.E.E.R R b.b.E.",
"I././.b.b.I.I.n.b.S.S.I.I././.n.b././.Q j.j.j.j.j.j.j.j.j.j.j.j.=.j.j.j.j.j.j.j.j.j.j.j.j.t.M /./.R R I.E././.L.L.I.I.c.M b.b.I.",
"b.R R /./.R R S.S././.R R /./.b.b././.d j.j.j.j.j.j.j.j.j.j.j.j.=.g.j.j.j.j.j.j.j.j.j.j.j.d.T.E.I.b.b.E.E././.R c.L.L.I.I.n.b.b.",
"b.R R /./.R R S.S././.R R /./.b.b././.d j.j.j.j.j.j.j.j.j.j.j.j.f.h.j.j.j.j.j.j.j.j.j.j.j.d.R.E.I.b.b.E.E././.R R L.L.I.I.b.b.b.",
"S.b.n.I.I.b.b././.I.I.b.b.I.I././.E.E.n j.j.j.j.j.j.j.j.j.g.,.U 4.f.j.j.j.j.j.j.j.j.j.j.j.d.C.R R b.c.c.R E.E.R R c.b.I.I.S.S.S.",
"S.b.b.I.I.b.b././.I.I.b.b.I.I././.I.I.v j.j.j.j.j.j.j.j.j.w.~.E.E.V f.j.j.j.j.j.j.j.j.j.j.f.B.R R b.b.R R E.E.R R n.b.I.I.S.S.S.",
"S.b.b.R R /./.I.I.R R b.b.b.n.I.I.R c.m g.j.j.j.j.j.j.j.j.k.I.R c.Q.>.j.j.j.j.j.j.j.j.j.j.f.A.S.S.b.b.S.S.b.b.b.b.I.I././.I.I.S.",
"S.b.b.R R /./.I.I.c.R b.b.b.b.I.I.x.x.L i.j.j.j.j.j.j.j.j.9.E.R R ^.e.j.j.j.j.j.j.j.j.j.j.d.H.S.S.b.b.S.S.b.b.b.b.I.I././.I.I.S.",
"/.S.S.b.b.I.I.c.R b.b.S.S.S.S.I.I.b.b.x.t.j.j.j.j.j.j.j.j.:.x.b.b./.l.j.j.j.j.j.j.j.j.j.j.d.K S.S.S.S.I.E.R R b.b.S.S././.c.c./.",
"/.S.S.b.n.I.I.R R b.b.S.S.S.S.I.E.b.b.b.&.j.j.j.j.j.j.j.j.<.R b.b./.z.j.j.j.j.j.j.j.j.j.j.p.c.S.S.S.S.I.I.R R n.b.S.S././.c.N /.",
"R /./.S.S././././.S.S.S.S././././.S.S.b.h j.j.j.j.j.j.j.j.1.R E.I.b.k h.j.j.j.j.j.j.j.j.j.2.n././././.I.I.I.I.S.S././.I.I.b.b.c.",
"R /./.S.S././././.S.S.S.S././././.S.S.b.B h.j.j.j.j.j.j.j.1.c.E.I.b.S f.j.j.j.j.j.j.j.j.j.8.S././././.I.I.I.I.S.S././.I.I.b.b.R ",
"b.R R /./.I.I.b.b././.R R /./.I.E././.S.v.i.j.j.j.j.j.j.j.1.b././.L.m.i.j.j.j.j.j.j.j.j.g.V./.E.I.c.R b.n.I.I.S.S.I.I.c.R S.S.b.",
"b.R R /./.I.I.b.n././.x.R /./.I.E././.S.S.5.j.j.j.j.j.j.j.7.S././.G.D.w.j.j.j.j.j.j.j.f.Y /./.I.I.R R b.n.I.I.S.S.I.I.N R S.S.b.",
"b.R R /./.b.b.R R I.I././.I.I.c.R /./.S.S.H.p.j.j.j.j.j.h.G S.G.G././.N.:.j.j.j.j.j.f.j c.I.I.R R b.b././././.I.I.R c.b.b././.b.",
"b.R R /./.n.b.R R I.I././.I.I.R R /./.S.S.^.H.-.j.j.j.j.@.b.S.G.G././.G.D.f X.y.2.h R b.b.I.I.R R n.b././././.I.I.c.c.b.b././.b.",
"S.b.b.I.I.b.b.b.b.I.I././.b.b././.R R /./.b.b.J.U -.-.z Z.S.S.S.S././.I.I.R R K.K.^.^.b.b.I.I.R R /./.I.I.R R I.I.b.b././.I.I.S."
};
