/* XPM */
static char *result[] = {
/* columns rows colors chars-per-pixel */
"64 64 211 2 ",
"   c #010101",
".  c #080707",
"X  c #001C16",
"o  c #001F18",
"O  c #08110E",
"+  c #221D1B",
"@  c #002019",
"#  c #00372B",
"$  c #1C3C34",
"%  c #003F31",
"&  c #272624",
"*  c #332F2C",
"=  c #25322D",
"-  c #3B3937",
";  c #353330",
":  c #433E3C",
">  c #004335",
",  c #004B3B",
"<  c #0A4739",
"1  c #1C423A",
"2  c #2B443E",
"3  c #4D443E",
"4  c #015E49",
"5  c #055745",
"6  c #1A5145",
"7  c #364D48",
"8  c #3C544E",
"9  c #2F524B",
"0  c #02624D",
"q  c #016C55",
"w  c #0D6E58",
"e  c #0A6854",
"r  c #00745B",
"t  c #00795F",
"y  c #1C6051",
"u  c #017C61",
"i  c #4C4C4D",
"p  c #484745",
"a  c #514E4C",
"s  c #5A4D47",
"d  c #41524B",
"f  c #5B514D",
"g  c #50504F",
"h  c #504F52",
"j  c #485854",
"k  c #5A5857",
"l  c #5E5D5C",
"z  c #575655",
"x  c #4E4E50",
"c  c #63554E",
"v  c #645E5A",
"b  c #655A55",
"n  c #634B4C",
"m  c #576156",
"M  c #6C625C",
"N  c #64615C",
"B  c #75665E",
"V  c #636463",
"C  c #6C6C6C",
"Z  c #6B6764",
"A  c #7E6E66",
"S  c #746E6A",
"D  c #73716D",
"F  c #7A706B",
"G  c #687270",
"H  c #747373",
"J  c #7C7977",
"K  c #7B7A7A",
"L  c #787674",
"P  c #836B5E",
"I  c #8D6C6C",
"U  c #857369",
"Y  c #807E7B",
"T  c #8E7A70",
"R  c #947C70",
"E  c #008165",
"W  c #008A6C",
"Q  c #009B79",
"!  c #009373",
"~  c #028F70",
"^  c #00A17E",
"/  c #978277",
"(  c #9B857A",
")  c #91847E",
"_  c #83807E",
"`  c #B5917F",
"'  c #A98B7D",
"]  c #7E7E80",
"[  c #807F82",
"{  c #03A481",
"}  c #0CA684",
"|  c #00AC87",
" . c #12A687",
".. c #15A988",
"X. c #1CAB8C",
"o. c #13A887",
"O. c #00B68F",
"+. c #25AF91",
"@. c #2BB194",
"#. c #42B99F",
"$. c #4DBEA5",
"%. c #45BBA1",
"&. c #51BFA7",
"*. c #69B4A4",
"=. c #59C2AB",
"-. c #6CC9B5",
";. c #63C6B0",
":. c #76CDB9",
">. c #7ACEBC",
",. c #71CBB7",
"<. c #838282",
"1. c #8C8C8B",
"2. c #8C8987",
"3. c #958F8C",
"4. c #94918E",
"5. c #939393",
"6. c #9C9996",
"7. c #9D9C9B",
"8. c #999693",
"9. c #8E8E92",
"0. c #A38B83",
"q. c #B68C8B",
"w. c #AE9689",
"e. c #A79084",
"r. c #B49B8E",
"t. c #B0978B",
"y. c #A19E9B",
"u. c #B89E91",
"i. c #A3A09D",
"p. c #BCA295",
"a. c #9F9EA2",
"s. c #A5A4A3",
"d. c #AAA7A4",
"f. c #ADA9A7",
"g. c #ADABAA",
"h. c #A4A3A8",
"j. c #B1ADAB",
"k. c #B5B1AE",
"l. c #B5B3B1",
"z. c #B8B4B1",
"x. c #BCB9B6",
"c. c #BCBBBA",
"v. c #B6B6BB",
"b. c #C59D88",
"n. c #C59696",
"m. c #C5A99B",
"M. c #C5AA9C",
"N. c #D6AA94",
"B. c #C7A08C",
"V. c #CCAFA1",
"C. c #CFB2A3",
"Z. c #C8B3A9",
"A. c #D3B5A6",
"S. c #D3B6A8",
"D. c #DBBCAD",
"F. c #D8B8A8",
"G. c #C2BFBF",
"H. c #D6BEB1",
"J. c #DCAAA9",
"K. c #F3ADA1",
"L. c #FABEBF",
"P. c #F4B0A4",
"I. c #80D0BF",
"U. c #F6C4AA",
"Y. c #E3C3B3",
"T. c #EBCABA",
"R. c #E9C4BA",
"E. c #FFCCB2",
"W. c #F1CFBE",
"Q. c #F8C8BA",
"!. c #F2D0BF",
"~. c #FFD1BC",
"^. c #BDBCC1",
"/. c #8AD4C4",
"(. c #9BDACD",
"). c #94D8CA",
"_. c #A8DED3",
"`. c #AEDAD1",
"'. c #BBE6DD",
"]. c #B4E4D9",
"[. c #ACE0D5",
"{. c #C4C4C4",
"}. c #CBCBCB",
"|. c #C8C6C9",
" X c #CECDD2",
".X c #D2D2D3",
"XX c #D6D5DB",
"oX c #DCDCDC",
"OX c #D0CED2",
"+X c #FCCCC4",
"@X c #FBC8C5",
"#X c #F5D2C1",
"$X c #FCD4C4",
"%X c #FED9C6",
"&X c #FFDBC9",
"*X c #F3DACD",
"=X c #F5DBD0",
"-X c #FDE6DA",
";X c #CBECE5",
":X c #C1E8E0",
">X c #DBF2ED",
",X c #D7F0EB",
"<X c #D2EEE8",
"1X c #E4E4E4",
"2X c #EBEBEB",
"3X c #E7F6F3",
"4X c #F3F3F3",
"5X c #FDFDFD",
"6X c #F5FCFA",
"7X c #E0F4EF",
"8X c None",
/* pixels */
"8X8X8X8X8X8X8X8X8X8X8X8X8X8X8X8X8X8X8X8X8X8X8X8X8X8X8X8X8X8X8X8X8X8X8X8X8X8X8X8X8X8X8X8X8X8X8X8X8X8X8X8X8X8X8X8X8X8X8X8X8X8X8X8X",
"8X8X8X8X8X8X8X8X8X8X8X8X8X8X8X8X8X8X8X8X8X8X8X8X8X8X8X8X8X8X8X8X8X8X8X8X8X8X8X8X8X8X8X8X8X8X8X8X8X8X8X8X8X8X8X8X8X8X8X8X8X8X8X8X",
"8X8X8X8X8X8X8X8X8X8X8X8X8X8X8X8X8X8X8X8X8X8X8X8X8X8X8X8X8X8X8X8X8X8X8X8X8X8X8X8X8X8X8X8X8X8X8X8X8X8X8X8X8X8X8X8X8X8X8X8X8X8X8X8X",
"8X8X8X8X8X8X8X8X8X8X8X8X8X8X8X8X8X8X8X8X8X8X8X8X8X8X8X8X8X8X8X8X8X8X8X8X8X8X8X8X8X8X8X8X8X8X8X8X8X8X8X8X8X8X8X8X8X8X8X8X8X8X8X8X",
"8X8X8X8X8X8X8X8X8X8X8X8X8X8X8X8X8X8X8X8X8X8X8X8X8X8X8X8X8X8X8X8X8X8X8X8X8X8X8X8X8X8X8X8X8X8X8X8X8X8X8X8X8X8X8X8X8X8X8X8X8X8X8X8X",
"8X8X8X8X8X8X8X8X8X8X8X8X8X8X8X8X8X8X8X8X8X8X8X8X8X8X8X8X8X8X8X8X8X8X8X8X8X8X8X8X8X8X8X8X8X8X8X8X8X8X8X8X8X8X8X8X8X8X8X8X8X8X8X8X",
"8X8X8X8X8X8X8X8X8X8X8X8X8X8X8X8X8X8X8X8X8X8X8X8X8X8X8X8X8X8X8X8X8X8X8X8X8X8X8X8X8X8X8X8X8X8X8X8X8X8X8X8X8X8X8X8X8X8X8X8X8X8X8X8X",
"8X8X8X8X8X8X8X8X8X8X8X8X8X8X8X8X8X8X8X8X8X8X8X}.h.5.<.H H H <.s.C k H s.1X8X8X8X8X8X8X8X8X8X8X8X8X8X8X8X8X8X8X8X8X8X8X8X8X8X8X8X",
"8X8X8X8X8X8X8X8X8X8X8X8X8X8X8X8X8X8Xg.H ] K C [ h.j.z.z.z.k.d.8.4.k.j.2.v 6.8X8X8X8X8X8X8X8X8X8X8X8X8X8X8X8X8X8X8X8X8X8X8X8X8X8X",
"8X8X8X8X8X8X8X8X8X8X8X8X8X8X8X8X8X8Xg.H  XXXOXG.z.z.z.z.z.z.z.z.l.z.z.z.z.Y V H <.7.c.1X8X8X8X8X8X8X8X8X8X8X8X8X8X8X8X8X8X8X8X8X",
"8X8X8X8X8X8X8X8X8X8X8X8X8X8X8X8X8X}.H h ^.XXx.z.z.z.z.z.z.z.z.z.z.z.z.z.z.z.z.z.d.2.D V <.4X8X8X8X8X8X8X8X8X8X8X8X8X8X8X8X8X8X8X",
"8X8X8X8X8X8X8X8X8X8X8X8X8X8X8X{.<.H  XXX Xv.l.z.z.z.z.z.z.z.z.z.z.z.z.z.z.z.z.z.l.k.y.1.p XX8X8X8X8X8X8X8X8X8X8X8X8X8X8X8X8X8X8X",
"8X8X8X8X8X8X8X8X8X8X8X8X8X8X2Xi v.XX}.G.z.z.z.z.z.z.z.z.z.z.z.z.z.z.z.z.z.z.z.z.z.k.g.y.Y v 6.8X8X8X8X8X8X8X8X8X8X8X8X8X8X8X8X8X",
"8X8X8X8X8X8X8X8X8X8X8X8X8X8X4XC h.XXx.z.z.z.z.z.z.z.z.z.z.z.z.z.z.z.z.z.z.z.z.z.z.z.z.k.s.y.p {.8X8X8X8X8X8X8X8X8X8X8X8X8X8X8X8X",
"8X8X8X8X8X8X8X8X8X8X8X8X8Xc.V a..X|.x.z.z.z.z.z.z.z.z.z.k.z.z.z.z.z.z.z.z.z.z.z.z.z.z.z.d.6.a 7.8X8X8X8X8X8X8X8X8X8X8X8X8X8X8X8X",
"8X8X8X8X8X8X8X8X8X8X8X2X] ] OX|.z.z.l.y.f.z.z.z.z.z.z.z.k.8.7.l.y.k.z.z.z.z.z.z.z.z.z.z.f.i.i.v 7.8X8X8X8X8X8X8X8X8X8X8X8X8X8X8X",
"8X8X8X8X8X8X8X8X8X8X1Xh |. Xz.z.z.y.f B Y j.k.z.z.z.z.j.v c k N 3 4.z.z.z.z.z.z.z.z.z.z.z.f.i.i.k .X8X8X8X8X8X8X8X8X8X8X8X8X8X8X",
"8X8X8X8X8X8X8X8X8X8X<.x.XXG.z.z.i.c R.#XZ : 4.z.l.l.6.a M.#XC.S.T.b i.k.z.z.z.z.z.z.z.z.z.z.i.i.4.V 8X8X8X8X8X8X8X8X8X8X8X8X8X8X",
"8X8X8X8X8X8X8X8X8X8XK  XXXG.z.z.Y ( &X&X&XD.M F J Z A #X&X&X&X&X%XF.c 4.z.z.z.z.z.z.z.z.z.z.f.i.i.p 5X8X8X8X8X8X8X8X8X8X8X8X8X8X",
"8X8X8X8X8X8X8X8X8X8X`.i XXG.z.z.L ( &X&X&X&X$XF.A.Y.&X&X&X&X&X&X&X&XT.U Z z.z.z.z.z.z.z.z.i.i.y.v g 5X8X8X8X8X8X8X8X8X8X8X8X8X8X",
"8X8X8X8X8X8X8X8X8XoXp h.XX{.z.7.v #X&XT.Y.Y.Y.Y.Y.D.A.M.r.t.#X&X&X&X&X#X- z.z.z.z.z.z.z.k.i.i.i.l 5X8X8X8X8X8X8X8X8X8X8X8X8X8X8X",
"8X8X8X8X8X8X8X8X8X8Xx.h XXx.z.J ' &X&XD.u.r.r.u.u.u.m.C.Y.T.&X&X&X&X&X!.- k.z.z.z.z.z.z.z.j.i.i.k 1X8X8X8X8X8X8X8X8X8X8X8X8X8X8X",
"8X8X8X8X8X8X8X8X8X8X9.9.XX|.z.D w.&X&XS.t.p.m.M.m.M.p.r.0.w.&X&X&X&X&X&XM i.z.z.z.z.z.z.z.z.i.i.H l.8X8X8X8X8X8X8X8X8X8X8X8X8X8X",
"8X8X8X8X8X8X8X8X8X8XoXl h.XXx.M #X&X&X%XY.D.S.C.C.A.D.Y.W.&X&X&X&X&X&X&Xs z.z.z.z.z.z.z.z.j.i.i.J a.8X8X8X8X8X8X8X8X8X8X8X8X8X8X",
"8X8X8X8X8X8X8X8X8X8X8X6Xi XXc.M p./ T r.&X&X&X&X&X&X&X&X&X&XC.( T U S.&XB i.z.z.z.z.z.z.k.i.i.i.H d.8X8X8X8X8X8X8X8X8X8X8X8X8X8X",
"8X8X8X8X8X8X8X8X8X8X8X8Xh XXg.U D.S.S.T.&X&X&X&X&X&X&X&X&X&XD.C.S.D.#X&XY.p f.z.z.z.z.z.k.i.i.C * .X8X8X8X8X8X8X8X8X8X8X8X8X8X8X",
"8X8X8X8X8X8X8X8X8X8X8X8XV 5.Z T.&X&X&X&X&X&X&X&X&X&X&X&X&X&X&X&X&X&X&X&X&XF.D z.z.z.z.k.j.i.i.z l.8X8X8X8X8X8X8X8X8X8X8X8X8X8X8X",
"8X8X8X8X8X8X8X8X8X8X8X8X.Xv -X=X#XC.Y.&X&X&X&X&X&X&X&X&X&X&X&X&X&X%X&X&X&X#Xk z.z.z.z.k.i.i.6.C 1X8X8X8X8X8X8X8X8X8X8X8X8X8X8X8X",
"8X8X8X8X8X8X8X8X8X8X8X8X8Xa -X*Xc   + D.&X&X&X&X&X&X&X&X&X&X&XT.c * e.&X&X&Xi z.z.z.k.d.i.i.V y.8X8X8X8X8X8X8X8X8X8X8X8X8X8X8X8X",
"8X8X8X8X8X8X8X8X8X8X8X8X8Xl *XH.O     R &X&X&X&X&X&X&X&X&X&X&X/     + D.&X&X3 d.L M b Z 8.2.H 1X8X8X8X8X8X8X8X8X8X8X8X8X8X8X8X8X",
"8X8X8X8X8X8X8X8X8X8X8X8X8Xa -XT.;   . m.&X&X&X&X&X&X&X&X&X&X&Xe.    & D.&X%Xs s B.U.U.b.3 g XX8X8X8X8X8X8X8X8X8X8X8X8X8X8X8X8X8X",
"8X8X8X8X8X8X8X8X8X8X8X8X4XS -X@XJ.I n.~.&X&X&X&X&X&X&X&X&X&X&X@XI n n.Q.+X%XM.!.%X%XE.E.N.K 8X8X8X8X8X8X8X8X8X8X8X8X8X8X8X8X8X8X",
"8X8X8X8X8X8X8X8X8X8X8X8X1XT @XL.L.L.L.L.+X&X%X%X&X&X&X&X&X&X+XL.L.L.L.L.L.+X&X&X&X%X~.E.N.2.8X8X8X8X8X8X8X8X8X8X8X8X8X8X8X8X8X8X",
"8X8X8X8X8X8X8X8X8X8X8X8X5Xf L.L.L.L.L.L.@X&X%XQ.$X&X~.Q.&X&X$XQ.L.L.L.L.L.@X$X%X%X~.E.E.P }.8X8X8X8X8X8X8X8X8X8X8X8X8X8X8X8X8X8X",
"8X8X8X8X8X8X8X8X8X8X8X8X8X1.q.L.L.L.L.L.$X%X&XL.K.K.P.$X&X&X&X+XL.L.L.L.@X~.` b.E.E.E.b.J 8X8X8X8X8X8X8X8X8X8X8X8X8X8X8X8X8X8X8X",
"8X8X8X8X8X8X8X8X8X8X8X8X8X8XF 3.@X+X+X%X&X&X&X&X&X&X&X&X&X&X%X%X&X$XQ.A.` s d.J U ` R J 4X8X8X8X8X8X8X8X8X8X8X8X8X8X8X8X8X8X8X8X",
"8X8X8X8X8X8X8X8X8X8X8X8X8X8X8Xl.] S 3.C.H.S.H.F.D.D.A.V.p.t.( U N 8 * <.{.C oX8X.Xl.|.8X8X8X8X8X8X8X8X8X8X8X8X8X8X8X8X8X8X8X8X8X",
"8X8X8X8X8X8X8X8X8X8X8X8X8X8X8X8X8X8X}.<.h s.d.= , , 5 % @ # 0 r r q < `.5X6XC |.8X8X8X8X8X8X8X8X8X8X8X8X8X8X8X8X8X8X8X8X8X8X8X8X",
"8X8X8X8X8X8X8X8X8X8X8X8X8X8X8X8X8X8Xs.K 4X5X6X1 r r % , ! t % r r > r %.5X5X5Xl .X8X8X8X8X8X8X8X8X8X8X8X8X8X8X8X8X8X8X8X8X8X8X8X",
"8X8X8X8X8X8X8X8X8X8X8X8X8X8X8X8X8Xh.5.5X5X6X-.4 # > u Q ^ ^ t # > , Q { >.5X5X2Xz 1X8X8X8X8X8X8X8X8X8X8X8X8X8X8X8X8X8X8X8X8X8X8X",
"8X8X8X8X8X8X8X8X8X8X8X8X8X8X8X8X7.y _.;XI.X.^ +.o.^ ^ ^ ..^ ^ ! ! ^ ^ ^ ^ ;.7X3X*.G 8X8X8X8X8X8X8X8X8X8X8X8X8X8X8X8X8X8X8X8X8X8X",
"8X8X8X8X8X8X8X8X8X8X8X8X8X8X8Xg.= u ^ ^ ^ ^ ,.7X,XX.^ '.>X). .^ :.I.^ ^ ^ ^ ....^ e d.8X8X8X8X8X8X8X8X8X8X8X8X8X8X8X8X8X8X8X8X8X",
"8X8X8X8X8X8X8X8X8X8X8X8X8X8X}.A T.m ! ! q $.>XX.<X:.-.>X+.:XI.=.6X'.X.W Q ^ ^ ^ ^ E 8 2X8X8X8X8X8X8X8X8X8X8X8X8X8X8X8X8X8X8X8X8X",
"8X8X8X8X8X8X8X8X8X8X8X8X8X6Xf W.&Xm.4 > E _.).^ (.(.(.(.^ ,.'.>.>.;XX.r 0 ^ ^ ! < D Z d.8X8X8X8X8X8X8X8X8X8X8X8X8X8X8X8X8X8X8X8X",
"8X8X8X8X8X8X8X8X8X8X8X8X8X}./ &XS.U N < X.,X%.^ (.(._./.^ I.[.^ X.,X@.^ > 7 e $ Y.%XC.K 8X8X8X8X8X8X8X8X8X8X8X8X8X8X8X8X8X8X8X8X",
"8X8X8X8X8X8X8X8X8X8X8X8X8X4XH F 1..Xl.u X.>X#.^ ;X:.(.(...;X-.^ o.>X@.^ E S {.k / Y.r.] 8X8X8X8X8X8X8X8X8X8X8X8X8X8X8X8X8X8X8X8X",
"8X8X8X8X8X8X8X8X8X8X8X8X8X8X8X8X8X8XG ! ^ ).;X(.7X..$.3X].'.} ^ ^ ,X=.^ Q $ 5X8X}.1.5.2X8X8X8X8X8X8X8X8X8X8X8X8X8X8X8X8X8X8X8X8X",
"8X8X8X8X8X8X8X8X8X8X8X8X8X8X8X8X8X8X9 { ^ } &.,.+.^ ^ =.-.X.^ ^ ^ #...^ ^ , oX8X8X8X8X8X8X8X8X8X8X8X8X8X8X8X8X8X8X8X8X8X8X8X8X8X",
"8X8X8X8X8X8X8X8X8X8X8X8X8X8X8X8X8XoX& @ X X X X X X o @ @ @ @ @ @ @ o o o O s.8X8X8X8X8X8X8X8X8X8X8X8X8X8X8X8X8X8X8X8X8X8X8X8X8X",
"8X8X8X8X8X8X8X8X8X8X8X8X8X8X8X8X8X.X1 W t t t u t t t t t t t t u r u u u 4 H 8X8X8X8X8X8X8X8X8X8X8X8X8X8X8X8X8X8X8X8X8X8X8X8X8X",
"8X8X8X8X8X8X8X8X8X8X8X8X8X8X8X8X8X.X6 O.^ ^ ^ ^ ^ Q ^ ^ ^ ^ ^ ^ Q { { ^ ^ u j 8X8X8X8X8X8X8X8X8X8X8X8X8X8X8X8X8X8X8X8X8X8X8X8X8X",
"8X8X8X8X8X8X8X8X8X8X8X8X8X8X8X8X8X8X9 | { ^ ^ ^ 4 5 w w w w q 5 ~ ^ Q { Q u 7 8X8X8X8X8X8X8X8X8X8X8X8X8X8X8X8X8X8X8X8X8X8X8X8X8X",
"8X8X8X8X8X8X8X8X8X8X8X8X8X8X8X8X8X8X8 { | { { { q 2.|.|.|.G.c.1 Q { ^ ^ Q r d 8X8X8X8X8X8X8X8X8X8X8X8X8X8X8X8X8X8X8X8X8X8X8X8X8X",
"8X8X8X8X8X8X8X8X8X8X8X8X8X8X8X8X8X8X*.* l d 5 r V 8X8X8X8X8X8Xa.0 5 9 j 8 1 L 8X8X8X8X8X8X8X8X8X8X8X8X8X8X8X8X8X8X8X8X8X8X8X8X8X",
"8X8X8X8X8X8X8X8X8X8X8X8X8X8X8X8X8X8X}.H 5X6Xx.= 2X8X8X8X8X8X8X8XV 5.4X5X5XJ .X8X8X8X8X8X8X8X8X8X8X8X8X8X8X8X8X8X8X8X8X8X8X8X8X8X",
"8X8X8X8X8X8X8X8X8X8X8X8X8X8X8X8X8X8X8X5.a.{.H oX8X8X8X8X8X8X8X8X4XJ g.2X1.1.8X8X8X8X8X8X8X8X8X8X8X8X8X8X8X8X8X8X8X8X8X8X8X8X8X8X",
"8X8X8X8X8X8X8X8X8X8X8X8X8X8X8X8X8X8X8X8Xl.h.oX8X8X8X8X8X8X8X8X8X8X8Xg.1.v.8X8X8X8X8X8X8X8X8X8X8X8X8X8X8X8X8X8X8X8X8X8X8X8X8X8X8X",
"8X8X8X8X8X8X8X8X8X8X8X8X8X8X8X8X8X8X8X8X8X8X8X8X8X8X8X8X8X8X8X8X8X8X8X8X8X8X8X8X8X8X8X8X8X8X8X8X8X8X8X8X8X8X8X8X8X8X8X8X8X8X8X8X",
"8X8X8X8X8X8X8X8X8X8X8X8X8X8X8X8X8X8X8X8X8X8X8X8X8X8X8X8X8X8X8X8X8X8X8X8X8X8X8X8X8X8X8X8X8X8X8X8X8X8X8X8X8X8X8X8X8X8X8X8X8X8X8X8X",
"8X8X8X8X8X8X8X8X8X8X8X8X8X8X8X8X8X8X8X8X8X8X8X8X8X8X8X8X8X8X8X8X8X8X8X8X8X8X8X8X8X8X8X8X8X8X8X8X8X8X8X8X8X8X8X8X8X8X8X8X8X8X8X8X",
"8X8X8X8X8X8X8X8X8X8X8X8X8X8X8X8X8X8X8X8X8X8X8X8X8X8X8X8X8X8X8X8X8X8X8X8X8X8X8X8X8X8X8X8X8X8X8X8X8X8X8X8X8X8X8X8X8X8X8X8X8X8X8X8X",
"8X8X8X8X8X8X8X8X8X8X8X8X8X8X8X8X8X8X8X8X8X8X8X8X8X8X8X8X8X8X8X8X8X8X8X8X8X8X8X8X8X8X8X8X8X8X8X8X8X8X8X8X8X8X8X8X8X8X8X8X8X8X8X8X",
"8X8X8X8X8X8X8X8X8X8X8X8X8X8X8X8X8X8X8X8X8X8X8X8X8X8X8X8X8X8X8X8X8X8X8X8X8X8X8X8X8X8X8X8X8X8X8X8X8X8X8X8X8X8X8X8X8X8X8X8X8X8X8X8X",
"8X8X8X8X8X8X8X8X8X8X8X8X8X8X8X8X8X8X8X8X8X8X8X8X8X8X8X8X8X8X8X8X8X8X8X8X8X8X8X8X8X8X8X8X8X8X8X8X8X8X8X8X8X8X8X8X8X8X8X8X8X8X8X8X"
};
