/* XPM */
static char *result[] = {
/* columns rows colors chars-per-pixel */
"64 64 141 2 ",
"   c gray91",
".  c #E9E9E9",
"X  c #ECECEC",
"o  c #EAEAEA",
"O  c #E8E9E8",
"+  c #E6E6E6",
"@  c #DDDEDD",
"#  c gray93",
"$  c gray90",
"%  c #DDDDDD",
"&  c #EAEBEB",
"*  c gray89",
"=  c #E5E6E5",
"-  c #EEEFEF",
";  c #EEEEEE",
":  c #EBECEC",
">  c #E4E4E4",
",  c gray92",
"<  c #EFEFEF",
"1  c #EFF0F0",
"2  c #E2E2E1",
"3  c gray88",
"4  c #E7E7E7",
"5  c #E9EAE9",
"6  c #E1E2E1",
"7  c #E7E8E7",
"8  c #DADADA",
"9  c #E3E3E2",
"0  c #E2E3E2",
"q  c #E1E1E1",
"w  c #EDEEEE",
"e  c #E8E9E9",
"r  c gray85",
"t  c gray87",
"y  c #DDDDDC",
"u  c #E2E2E2",
"i  c #E3E4E3",
"p  c gainsboro",
"a  c #D0D0CF",
"s  c #DBDBDA",
"d  c #E0E0DF",
"f  c #DFDFDF",
"g  c #DEDEDD",
"h  c #DFDFDE",
"j  c #ECEDED",
"k  c #D7D7D6",
"l  c gray82",
"z  c #D8D8D8",
"x  c LightGray",
"c  c #D9D9D8",
"v  c gray84",
"b  c #D8D8D7",
"n  c #D5D5D4",
"m  c #D7D7D7",
"M  c gray86",
"N  c gray80",
"B  c gray83",
"V  c #E6E7E6",
"C  c #DCDDDC",
"Z  c gray79",
"A  c #CECECD",
"S  c #CBCCCB",
"D  c #CDCDCC",
"F  c #D8D9D8",
"G  c #DEDFDE",
"H  c #D1D1D0",
"J  c #DADBDA",
"K  c #D6D7D6",
"L  c #C6C6C6",
"P  c #C7C7C6",
"I  c #CFD0CF",
"U  c #CDCDCD",
"Y  c #CFCFCE",
"T  c #CCCCCB",
"R  c #C9C9C8",
"E  c #D0D0D0",
"W  c #E6E7E7",
"Q  c #E1E1E0",
"!  c #D2D2D2",
"~  c #D9DAD9",
"^  c #F0F1F1",
"/  c #E7E8E8",
"(  c #EAEBEA",
")  c #F1F1F1",
"_  c #DFE0DF",
"`  c #E9EAEA",
"'  c #E5E6E6",
"]  c #E5E5E4",
"[  c #CBCBCA",
"{  c #D5D5D5",
"}  c #D6D6D5",
"|  c #E4E4E3",
" . c #CECECE",
".. c #DADAD9",
"X. c #E2E3E3",
"o. c #E4E5E4",
"O. c #D4D5D4",
"+. c #D2D2D1",
"@. c #DCDCDB",
"#. c #D7D8D7",
"$. c #D3D3D2",
"%. c #D3D4D3",
"&. c #DBDCDB",
"*. c #EBECEB",
"=. c gray94",
"-. c #E9E9E8",
";. c #EDEEED",
":. c #EFF0EF",
">. c gray81",
",. c #E0E1E0",
"<. c #E4E5E5",
"1. c #CCCDCC",
"2. c #CACAC9",
"3. c #CDCECD",
"4. c #D5D6D5",
"5. c #D4D4D3",
"6. c #C5C5C5",
"7. c #E1E2E2",
"8. c #EEEFEE",
"9. c #ECEDEC",
"0. c #F2F3F3",
"q. c #CACACA",
"w. c #E3E4E4",
"e. c gray95",
"r. c #E6E6E5",
"t. c #E8E8E7",
"y. c #F1F2F2",
"u. c #D2D3D2",
"i. c #C8C8C8",
"p. c #C4C4C3",
"a. c #E7E7E6",
"s. c #F3F4F4",
"d. c #F4F5F5",
"f. c #D1D2D1",
"g. c #C5C5C4",
"h. c #D0D1D0",
"j. c #C8C8C7",
"k. c #DDDEDE",
"l. c #C6C6C5",
"z. c #CECFCE",
"x. c white",
/* pixels */
"  . . X o   O + +   @ #     $ . X % & * . $ + $ =   - ; : o o > # X , < 1 X 2 3 > X , + . 4 4 4 . 5 o , . , # # . , - 4 6 , , : ",
"4 4 + . X . . > 7   8   > 9 0 > X q # 5   , o . . $ + & 4 4 O > X X X o o w $ ,   o X . + 4 . o o o , ; - w ; 1 e X < 4 r > + 4 ",
"q t y 3 u i > > t p a s 6 q 3 d * f > + $ g % $   7 * $ h + * 8 4 + > f > j * i k l g t t z x r % c z v b 8 r c n % % > v m t p ",
"* M N B V > q * C @ z Z A S D a F M p p G % G p % t H z t t q @ 3 3 % J % o + K L P I U Y T R y F E W * Q $ $ s ! u * 2 Y Y ~ 3 ",
".   G q j & O o X . + 2 u $   , - w & o V + O . X , 3 + : 5 + X # o j ^ 1 , & : t f , / $ o ( o * c X , # 1 ) ; _ 4     4 ` & 7 ",
"+ o M v ' * Q 3 + $ * + $ $ , w :   $ s t 4 O $ ] > M * o , . 5 , .   : O O e < + C . + 4     + * % 5 ] + . - ; s *   . , : , : ",
"4 < e [ J q t % > V $ * 7 + * % > $   { t X o   4 $ % > $ 7 & $   / 4 `   o - < u !     + o 5 ` i } ] u 2 | . , z > 4 X ; X . 4 ",
"= f q { l F m m M f % f Q 6 z B * q q A  .] $ + q q M ..f _ i * u X.4 $ o.> = = % [ } J c r O.+.n Z B c 8 s % 3 { ..8 r % 3 o.@.",
"o.M G , 0 * * * f z m r 8 J 8 8 #.3 f $ _ '   . O # V z #.v ! $...% 3 G t O.%.O.C 4 _ M &.0 = g q 8 A E  .E v u $ * * M t f d 6 ",
"j 7   . X X * _ *   . # # # ; ` d + . # , , & . .   +   o *.. ` , , X # o W o o . # # X   ^ X , , . 4   : ; ; ^ =.w , X w - < e ",
"  V = . o   $ 3 o.o $ -.    , # y d | +   4 ` o O o   = + 4 * X w 5 + + $ i ` , 4 # *.    . 4   , & o X & j ; ;.:.; t * , X ; X ",
"; # < ^ # X X . 4 e * o , o   i z | 4 4 . . X ( V   $ + + o.m & X $ > > 4 * . ; + . X   4 4 ,   + $ * ` 4 u @   . w 3 * X o X # ",
"i q u > * q f t B z b z &.f % s +.A B r } n $.$.>.r z { M @.a @.u 8  .>.M k M > y 3 G q $ 9 q r l x m k 8 8 M * * * % p 3 u * > ",
"q ,.z q > * 3 3 J t u p p _ 6 i u t q   ' > o.i <.. o + > ( 4 q 3 f q t f . e 4 ,.v t t &.p p g M p * > $ e . > 4   j   , X , , ",
"=     > i $ 4 + 4 O > u   + o.$ e   1 , # 4 . q >   ,   + , X # w X ( # o e & # , % 3 = 3 o.0 0   *.^ < =.; 1 w   o : : o . o . ",
". 4 f e + u q | u f g 3 u i $ * + 7 , o , $ V i $ +   + V o . .   # w X o , : X , % q * d 3 y o.j , # j ; # - + *.< X ( X . ` , ",
"* > m $ <.> u u 3 > d d q q i > 4 ; : o o * ( . o + 4 3 0 X . j X , e *.X j # < # 3 q + * > M q ,   ; =.j ( j + O , o :   , .   ",
"{ r H 0 3 M { 1.2.{ T ! f p @.K 8 y @.d M % f % r M J v 3.&.C M G p z p M k { ! E m D ! z B 8 k p 4._ f > 6 3 f s c k 4.B H 5.! ",
"w , , . e . $ 3 c m N 6.{ l a H Y 2.Y 8 f o X V i V   X 0 $ 6 c 3 ,.q 7.u s } f = e _ r m z % q : 5 ` 4 X ) ) : ` & + o . o .   ",
"# # X j ; <   * $ , + f o *.. , X h + ( . ` 4 4 X o o j j # 1 # ^ =.=.- - )   . o X # ; X o   , ;.1 < # e X - w X - w 8.X o . 5 ",
"# j o 4   .   q 3 q * v u   4 . , % * + o.> $   / . O o , X , . ;   # *.j . . 4 > . + $ .   9 $ + ( , . +   9.# o ; 1 0.# ` . & ",
"# < j   . , ` + i $ u M u   > o.o * & # - # o   , , 4 O , , # + # < # e , u t + 4 o O 9 O , u >   > + q * / . ( , < 1 8.. , X # ",
"J T l C f M { n x n 8 8 % t g M d 0 f G @.r n B r b { q. .k k x K r f % C 8 E M q G { m z % { v M 8 m % M _ g r { y ,.q * J t G ",
"  y r .   ,.C z l m q h % q $ w.+ & ` # 0 q m p J r r Y K ,.$ X .   e ;.< - / q $ * / , / $ u ` :.4 ` 1 # o ; + h : < =.e.- : o ",
"V i * 8.w O ( w _ > , < ) - .   4 + 7 o $ o ; < 1 1 ; > ; w V + o X : j # ; < 1 ) u 9   + > | o ^ , V , ; # - 1 u . . + &   e ; ",
"( q f . ,   7 w 4   o j 1 . . . 4 ` . 4 * 4 j ; o X ) #.> ` + > q u $ $ * u $ V W > ,.r.* + V O , . t   X X . 4 q   , o 4 o : X ",
"X q y > t.; X o + # # # < , # *.. e = u u = # 1 X   ) 8 > ,   / + 4 o #   f , j , > > o.] 7 4 . X V q * . X , # 4 9.< =.# X < y.",
"B 5.Y z r r z c H 8 f q p % 3 % m +.u.B f b f > f 3 p i.l t M m { r % t t p z $ * p f q q q u d q f M i * q s 3 $ u u s g 8 M f ",
"% $ > 5 . > f 3 f *   . j o . ( 7 8 % > # 4 $ $ 3 X.  g M * &.p.a m M z % u p / - j 4 + = > > + ( . q > > + $ 4 ` ( 0.+ u V & , ",
"7 ( O > + , < , = + o | . , . 4 X +   # X . # ; < -   * _ G < > g 3 >   #   u . X , , . a.> > u d t p 9 o.* * u $ | ;.  4 < - < ",
"+ - - j ; X ; 4 + $ $ |   o.> >   h m ,.+ i 4 w w X | 3 , 3 e / * * $ i 4 : * 7   : X ,   > * g 2 q q | > > $ , , | o > 4 , . , ",
"  ; s.0.- o X > > o.* 3   . 4 u o.s q 3 $ ; , X   > 9 u , j   o 4 4   5 O & q u   7 4 X   4 3 ,.i q $ o.  , o # : $ * 8 u , # ; ",
"B n c M m B z z A B > > 9 4 4 u u v a b r t * J * % M p z &.@ * 6 q Q z % * % 8 k B &.h q q M p h b d 3 * u 3 % n x % f ! z z &.",
"u * r r > > 2 t t > # e.e.s.d.s.y.: $ * > $ V >   V u z s + ` # . . & ' V & ; * q k q . , *.7 u * * > - 1 9.# j 0 s = , + q 3 f ",
", 1 $   < ; , +   O > 4 . *.( : . $ . + > h 5   w 9.+ q > - o i $ . , ; & X . * q m k = + .   = * + r u + = + # 4 f - ; 9.=.) ) ",
"# - q 6 O +   4 | 3 u f u >   o O   $ > * n $ 4 o . X r.8 . ` > $ . : , o a.u $ 4 { E 9 . *.:   3 q g $ * > $ . 3 b 7 . X & ( . ",
"- # > t 4 o 4 o 4 t p * 4 . . X X # .   X m f   . + 4 4 B $ f * $ * 4   *   O + = u M 3 q 4 , + Q 3 z u + > 3 $ 3 g . > 7 , . $ ",
"f G f x y % m 8 r k M t g 8 ..p 8 k {  .y k +.5.x z m 3 T 4.l E T u.O.s D >.b >.x v b r r k M B f.u t v x M _ 0 $ F ..U E t f % ",
"B c $ f q 2 t 3 _ ,.q $ i u 7 i t 3 3 Q O X X &   o , ( % x U p f X.=   u 8 u 2 0 h ` o V w.( X . # ^ , % . ^ ; , + / 0 r 3 * i ",
", .   ,   t.4 5   4 V 4 . . . # *.4 o ; o + $ o , o   + $ * % > W   . o o 8 ,.4 , *.X X o e   j X + 3 3 8 3 4 0 = 4 . + * .   w ",
"C 3 4 3 y ] 4 . . 4 $ 4 ( X X # , 9 V 4 . 4 p +     o o , 4 G 2 $ f 3 + o.r 3 + 4 o , . . o , 4 $ + 3 f 8 u + $ . 4 4 | %   4 . ",
"=.4 > + $ 4 4 o 4 . +   . X # j 7 * . O ( o X + $ 4 o   V   @.p 4 + + > u E f * + X , , 4   , . 4 . 4 * r f O , # o + $ s > $ $ ",
"z D g.h.5.k O.D c * q 3 q _ q Q f $.x 4.+.K z q.2.u.n m } c 8  .} 5.z z f ! R  .Z >.M f 8 v m @.3 * u 3 g m m v p p ..f r k a ! ",
"> 3 z % p h * q | $   . w w X X X + ,.> f > o : o o o . . + $ $ o + ,.+ o 7 $   4 X.W / o 7 $ o.. = .     O u r + X ;.j 1 j   . ",
"- X q # X o # X > u + X W + 4 + 4 o $ 3 f > X   4 + = @.z &.t >   $ 4 4 4 $ . o . 5 4 i u o.4 4 4 7 4 4 = $ + k C = $ u # =.) =.",
".   f X ; , . ( * $ + . w o o * + o e   t f 4 $ i 9 V @.% ..s t $ $   ,   $ 4 e | > o   $ > + 4 4 > 7 . o o , ,.$.% i > $ ] ` X ",
"< V d . ; , , &   o.b t u * G b s t % 7 6 M 4 u f q u G   4 t l @.Q q * V * h q = $ 4 ' > Q f q 4 > 4 $ / . . p > . 4 , o $ = X ",
"C ,.3 z m m c 8 M q p p t t z Y 2.{ M u $ b z %.%.K % u 3 % 8 N M f f g t t t f > $ . , = u J b % &.p % M p % s B c } O.f B % _ ",
"$ . X . * * u = . #   4 , X O > 4 > 4 , X o , # o + W ` : X o 4 ; ; , ; - 3 > X o o , 9.y.X 5 + 3 + 4 o , ` & o + u q 8   4 # j ",
"; , o o o .   + + + $ 2   + + +   q 3 +   $ > + > t 8 r 2 $ q 4 # X . &   u.q 4   o X , e $ $ t h 6 4 q 3 q 2 > > 3 @.% 4 . ; 4 ",
"- # j X . + $ ] q f + 2 > O W & o f $   V   $ = 4 u 3 C q > 8 * 4 2 V ` 5 { f 9.# o + O o o $ * 3 y q ' + 4 / $ u V 6 m > 4 o   ",
"- ; =.< , 4 4 > $ $ t f 2 q @ + > t 4 o , o o X # : 0 4 + + _ d + q > o : r t - - *.e , # &   + @ a n k t t $ + 6 z r n y * > . ",
"t w.u > + + u @.s r n $.l B a B } u.A D v m k r % G 5.5.v 8 / t f &.6 3 &.f.m z R j.% % r B n r % r z M 3 C v %.r 8 t _ m b z F ",
", o * 3 X X #     & , , e , , . j X   3 G 4 4 4 , X     X j 1   i 0 f f q 4 V o 0 6 # , > ' * > o * *   7 e ( > ,.,.* + 4 4 o u ",
"; # u u . .   + . ( o & 4 . . + , X X > u # . ` . # j + 4 $ 4 o . o o X *.j X o u u ,   $ O ; * 6 q g ] | $ , > u q q > * 3 u g ",
"; < * q * $ 4 > . , y.< o   $ 3 p + ; q s   $ ( , # u + , X , X , e . . *   , , f h $ 4 + 4 w u g * 3 * + i o + u $ i o.  $ + 4 ",
"# o $ 6 + 4 + $ : ^ =., + . , > + : # f 3 , , # X o r p +   4 9 3 3 u = = V   + z } M f 4 a.+ $ * b M % u $ * h M u 0 + 7   $ > ",
"v v 6 <.f $ $ G 3 f k.M % f t z z J f t $.u.v p &.y v n @ ,.% r v m t ~ 5.A T q.[ l.>.z.[ D $.} z #.4.+.r t 4.z x D i.U n m &.4.",
"y.0.e.e.) ; o . O q k i > o 4 <.g u ; < X     . + 4 o 9.y.=.u 6 ,   . , . k f t = >   0 o.6 > 7 , , 4 * / 7 . , . $ f y   O , 5 ",
"< . X ; - ; , + a.4 { o ; o ` o * * = + o # 9.X - < 5 , X =.$ Q V + . o # u * $ 4 > + 6 V . ] * 4 . 4 * V $ $ .   $ @.8 3 t % 3 ",
") 1 9.# , , o * = W A f   V 4 o 6 t u q $   X X - - ` . ` ; . > + 4 . . ` 4 7 $ # w 9.  4   q $ 4 $ $ . . 4   $ . o.b 8 > g u $ ",
"< ; o o.6 G * f u + m =   o X X Q z u 0 * 4 4 . # j X # X , * t t y t f q | ` + o ; X > d u @.> 4 . + i $ 4 > 3 G q m n * _ * > ",
"8 c z ~ r h M B U Y x 8 { n k M r A $.B n z k 8 y 8 B x b m 3.a { r $.x v v % E Y $.M 5.5.K z K a ! s &.5.x I l.j.l B L 2.5.+.A ",
", O q ; < , o o 7   + 0 > u s M = 4   , * / - ; ^ # # > 4 ; : o 4 e . ` o . 9.+ = ,.4 ; < - < . G z ( ,   4   M f   ; #   ; j / "
};
