/* XPM */
static char *Wall1679479109[] = {
/* columns rows colors chars-per-pixel */
"64 64 213 2 ",
"   c #56781F",
".  c #4F691D",
"X  c #545A3C",
"o  c #485839",
"O  c #4B6522",
"+  c #53692A",
"@  c #5A722A",
"#  c #5B7B26",
"$  c #5D6B35",
"%  c #56663D",
"&  c #5C7637",
"*  c #626E30",
"=  c #637B3C",
"-  c #667738",
";  c #4E4E4E",
":  c #46534E",
">  c #4B544C",
",  c #4D574A",
"<  c #5B5B45",
"1  c #54554D",
"2  c #54584C",
"3  c #5A5A4E",
"4  c #545644",
"5  c #4C4F53",
"6  c #4A4E5A",
"7  c #504E51",
"8  c #4C5254",
"9  c #4C515B",
"0  c #4A5552",
"q  c #535552",
"w  c #555954",
"e  c #5A5C53",
"r  c #545559",
"t  c #555B5B",
"y  c #5B5D5B",
"u  c #605E51",
"i  c #5A624C",
"p  c #586845",
"a  c #5B7144",
"s  c #5A6154",
"d  c #5D625B",
"f  c #596357",
"g  c #64654C",
"h  c #646B4B",
"j  c #676A49",
"k  c #6A7C44",
"l  c #64734D",
"z  c #677844",
"x  c #737F4F",
"c  c #636454",
"v  c #666956",
"b  c #6A6B56",
"n  c #63645C",
"m  c #666A5C",
"M  c #6B6B5C",
"N  c #686753",
"B  c #716E5B",
"V  c #6A7252",
"C  c #6E725C",
"Z  c #697758",
"A  c #72725E",
"S  c #747B5A",
"D  c #717752",
"F  c #5D5E61",
"G  c #5E6263",
"H  c #5D6268",
"J  c #636562",
"K  c #656A64",
"L  c #6B6D63",
"P  c #6B6D6A",
"I  c #656767",
"U  c #716E63",
"Y  c #716E6B",
"T  c #6E7164",
"R  c #6E716A",
"E  c #737364",
"W  c #797666",
"Q  c #767965",
"!  c #7C7B64",
"~  c #73746B",
"^  c #797769",
"/  c #76796B",
"(  c #7B7B6B",
")  c #6F7370",
"_  c #747572",
"`  c #747B74",
"'  c #7B7C73",
"]  c #7C7E7B",
"[  c #77767C",
"{  c #807E6E",
"}  c #807E73",
"|  c #628528",
" . c #678237",
".. c #6D8244",
"X. c #75854D",
"o. c #7C8B5A",
"O. c #778656",
"+. c #7C8163",
"@. c #7D826D",
"#. c #7E8174",
"$. c #7E827B",
"%. c #83925C",
"&. c #899B5E",
"*. c #819355",
"=. c #81885F",
"-. c #82826D",
";. c #868A6B",
":. c #878B68",
">. c #899669",
",. c #838374",
"<. c #898674",
"1. c #858A76",
"2. c #8B8B75",
"3. c #84857B",
"4. c #89877A",
"5. c #868A7C",
"6. c #8C8C7C",
"7. c #918F7B",
"8. c #8E917B",
"9. c #8E9375",
"0. c #919275",
"q. c #93937D",
"w. c #949B7C",
"e. c #979C75",
"r. c #96A176",
"t. c #7B7F80",
"y. c #7E8281",
"u. c #848582",
"i. c #868B84",
"p. c #8C8D82",
"a. c #8D8D8A",
"s. c #888783",
"d. c #918E82",
"f. c #8E9183",
"g. c #8B9688",
"h. c #949483",
"j. c #999784",
"k. c #969985",
"l. c #9B9A85",
"z. c #94958A",
"x. c #999689",
"c. c #97988B",
"v. c #9C9B8B",
"b. c #8F9190",
"n. c #969992",
"m. c #9C9D92",
"M. c #999793",
"N. c #A19C86",
"B. c #A29F8B",
"V. c #A19F93",
"C. c #AB9F93",
"Z. c #9EA18B",
"A. c #9BA386",
"S. c #9FA192",
"D. c #9FA49D",
"F. c #A2A286",
"G. c #A4A28D",
"H. c #A9A48D",
"J. c #A5A393",
"K. c #A9A693",
"L. c #A6A993",
"P. c #ABAA95",
"I. c #A4A39A",
"U. c #A9A69A",
"Y. c #A7A99A",
"T. c #ACAB9B",
"R. c #B1AE9B",
"E. c #B1AF96",
"W. c #AEB19C",
"Q. c #ACB594",
"!. c #B3B29D",
"~. c #B8B59F",
"^. c #B5B89C",
"/. c #ABB18D",
"(. c #A19FA0",
"). c #ACACA1",
"_. c #AAADA6",
"`. c #B1AEA1",
"'. c #B0AFAA",
"]. c #AEB2A3",
"[. c #AAB2A8",
"{. c #B5B4A3",
"}. c #B9B6A4",
"|. c #B6B9A3",
" X c #BBBAA5",
".X c #B5B4AA",
"XX c #BAB6AA",
"oX c #B6B9AB",
"OX c #BDBCAB",
"+X c #BDBCB1",
"@X c #B9B7B1",
"#X c #C1BCA6",
"$X c #C1BEAD",
"%X c #C2BEB1",
"&X c #BEC1AB",
"*X c #BAC0A4",
"=X c #BFC1B2",
"-X c #C3C1AE",
";X c #C6C3AC",
":X c #C4C2B2",
">X c #C9C5B4",
",X c #C7C9B3",
"<X c #CBC9B6",
"1X c #C6C5B9",
"2X c #C9C6BA",
"3X c #C7C9BA",
"4X c #CDCBBA",
"5X c #D1CDBB",
"6X c #D1CCB6",
"7X c #D3D1BC",
"8X c #CDCCC1",
"9X c #D1CDC1",
"0X c #D3D4C6",
/* pixels */
"v.P.>X$X-XOXOX:X-X&X$X:X$X$X$X;Xu.,.G.}.4X4X%X$X$XI./ T.}.|.}.~.}. X&X;X;X!.J.,.1X2X:X%X>X$X>X$X>X$X} V.}.#X$X$X>XJ.v.P.OX,X{.^ ",
"G.G.}.>XOX-XOXOXOXOX$X$XOX$X$X-X~ / v.G.$X>X;X$XOXv.5..X}.}.|..X{.^.}. X}.OXT./ %X%X>X>X:X:X>X%X>X$X$..X}.XX$X%X.Xj.h.k.v.K.R.( ",
"B.B.B.R.-X-XOX$XOXOX$X$XOX$X}.G.I L B.G.G. X-X$X.Xc.6.{.OXOXOX{.{.|.{.!.}.}.R./ T.:X:X-X;X>XXX#X:X}.~ oX X#X&XOXl.k.j.j.k.h.7.^ ",
"v.G.H.G.T.!.}.-X}.OX$X$X$X{.J.0.n m B.G.G.P.;X$X}.z.3..X%X:X+X.X}.!.!.}.{.}.`.,.U.:X:X:X%X$XJ.P.$X}.R T.}. X{.G.j.j.x.l.j.j.7./ ",
",.B.G.G.v.G.J.J.XX$XOXOXU.C.F.-.e m v.G.G.P.$X;X}.p._ .X+X:X:X1X=X&XOX|.{.{.W.#.{.=X%X:X|.H.G.G.R.OX~ 3.OX}.Y.c.l.k.z.k.k.l.6.Q ",
"m j.Z.G.C.B.v.G.R..X`.Y.B.G.F.S l v v.L.G.L.OX$XB.~ P [.+X:X:X:X-X:X&XOX|.{.oX3.].+X.XL.v.l.l.N.J.oX~ L }.}.K.g.w.q.q.h.6.p.$.L ",
"q ~ Z.G.v.G.G.G.N.l.l.w.9.:.X.| & $ E 6.j.l.v.k.L q G D..X).).).|.&X&X=XOX].T.#.5.<.A b V j j X.&.&.= - :.+.+.C C C C A M m d 9 ",
"8 q ,.6.2.6.,.@.Q E b h X % @ @ O o c B ! ( M J w 8 t ] _ ~ P ~ ' $.z.f.5.,./ n Y d < * - - | | | |   | @ % f v M m v b v n J G ",
"6 K g.L.L.k.R 1 ; d $.$.$.5.k.Q.}.;X<X1X:X1X1X>X%XXX).m.` w > I f.p.f.z.m.I.D.n.' i + + + + . . * j Q 9.w.k.z.s.I ; m.'.R.OX.X#.",
"K Y.3X<X,X3XOXI.J _ =X1X=X,X1X=X:X-X>X:X:X:X-X;X;X:X:X>XI.s p.:X,X,X,X,X>X>X<X2X:XL.C p % D o.;.q.q.l.T.T.}.$XOXI.L _.1X:X}.J.#.",
"c.OX;X<X,X<X4X4X+X3.+X-X$X:X:X:X:X-X-X:X-X:X>X>X-X:X:X6Xh.n T.:X X X}. XXX X XOXOX$X+X#./ G.H.J.J.K.T.-X-X-XOX+X1Xm.`.>X{.G.f.d ",
"T.OX;X<X<X<X<X4X4Xa.J.-X:X%X:X-X%X-X:X:X:X:XOX-X>X;X:X6X2.m v.>X X}. X$XOX}.}.{.OX|.OX#.<.C.B.J.K.K.-X4X:X,X:X:X2X`..X2XP.G.@.2 ",
"I.OX$X<X<X<X<X<X3Xp.,.}.$X:X$X:X-X:X:X>XOXP.N.B.P. X$X;XJ.L z.$X}.}.#X$X$XOXOX}.}. XOX/ 4.H.G.H.K.}.<X4X3X<X<X<X<X}.$X2X}.G.( 1 ",
"V.OX-X>X>X4X<X5X,X5.6.OX-X>X$X>X;X-X$X}.K.G.G.C.U.T.#X-XXX~ p.#X~.}.$X$X$X$X$X-XOX#X`.' 7.K.T.R. X>X<X<X4X4X<X<X<XR.XX%X-XE.( 2 ",
"z.OX-X<X<X4X>X$X!.,.m.,X-X$X-X X!.P.L.G.Z.l.B.F.F.G.P.~.:X4.4.P.}.#X$X$X:X$XOXOX$X-XK.! q.}.$X:X:X-X>X>X4X<X4X4X,Xc..X-X:X X2.2 ",
"d.{.,X<X<X<X%XOXU.' p.R.!.{.R.G.q.h.:.+.^ Q =.&.e.H.C.P.OXp.<.G.}.XX$X$X:X>XOX;X$X-XG.B h. X$X$XOX$X&X:X4X4X4X4XOX3.{.>X:XOXq.2 ",
"} h.R.5X>X>X$X:XK._ ' p.{ M 3 < < < 3 e w X + |  ...>.9.k.3.3.L.}.OXOX:X:XB.T.}.%X$Xx.U E J.#X#X X;XOXOX<X4X4X3X].G I.;X:X-XZ.1 ",
"U h.G.{.<X:X$X$XU.~ ~ p.d.z.M.V.U.U.V.x.,.m o & a = z x C m f..X}.OXOX>XK.q.h.v.T.$Xx.M c W j.l.G.G.P.L.}.5X4X3Xg.t n.-X:X:XP.n ",
"I h.H.V.&X-X$X@XJ.P (.>X%X>X6X<X4X5X6X9XOXZ.I d.!.|.Y.v.G.Z.m.:XOXOX-X}.h.j.k.h.h.j.6.a q y m ^ @.( <.1.l.K.XX).G 9 n.&XI.I.c.R ",
"n q.H.B.L.-X$X@Xv.M .X>X$X%X>X>X<X5X5X5XZ.k.~ 6.L.^.:X<X3XOXv.1XOXOX{.J.j.j.l.x.l.j.-.l a.c.z.z.h.~ m m M W ,.,.R ) c.T.' ) u t ",
"J 7.H.G.P.$X$XOXe.X.#X;X:X:XOX:X$X,X>X2X!.k.m E G.J.!.;X:X%Xp.XX{.{.v.h.k.h.j.l.l.l.@.O.%X X$XOX1X8X$.y oX:X;X2X8X8X5X4X4X4X.X1.",
"n q.J.J.P.#X$X}.*...~.;X-X&X-X-X:X$X$X>X,XP.n w 6.G.K.}.:X:X4.U.}.{.v.l.l.l.x.l.h.h.! O.$X}.}.}.}.XXI.' %X:X-X;X2X2X4X6X5XOXw.0.",
"r ( B.J.B.~.`.j. .- OX4X<X,X-X-X$XOX X:X-X XL q ( G.J.}.,X:X3.u.L.G.1.-.-.<.{ ( Q E C S %X#XXX X X}.K.k.-X$X-X$X$X$X-X%X>X>XR.7.",
"8 f -.6.0.q.2.E - -  X5X5X<X:X:X$X$X:X$X,X%X~ 1 +.G.!.,X:X%Xu.y T T b b N b b M v f , Q }.}. X}.}.OXJ.v.>X>X>X$X$X%X$X$X%X:X:XN.",
"8 G m L A ,.7.8...- -X9X6X4X5X4X>X:X:X-X-XoX_ 1 2.T.:X$X=X:Xu.0 P ) ] 3.d.d.p.,.^ R , m G.J.!.}.{.|.h.v.8X4X5X<X$X:X%X$X$X%X-XW.",
"I _.{.T.{.XX~.!.O.z :X5X4X6X5X5X4X>X:X:X$XOX_ e w.!.>X;X&X1X` 3.'..X$X-X1X2X2X2X.Xm./ E J.G.K.!.}.{.5.z.8X5X5X5X6X<X:X:X-X:XOX{.",
"3.:X,X:X$X}.H.V.Z h XX5X6X8X4X6X5X9X2X:X;X:X~ 1 l.OX$X-X:XOX,.].:X>X$X#X-X:X%X:X-X!.,.6.I.G.J.!.}.!.Q 3.8X5X4X4X5X5X4X<X:X$X>XoX",
"z.;X;X:XR.K.B.7.h s {.5X6X<X4X6X4X4X5X6X$X$X~ 2 !.:X%X-X&X.X' ).<X<X>X-XOX=X:X:X-X-Xz.z.].R.!.}. X`.T ( 4X5X5X7X4X9X9X9X4X$X:XOX",
"I.;X;X-XJ.J.N.D > y z.6.! ^ { 7.G.E.!.G.9.@.v L !.:X=X:X&X).K {.4X4X9X5X4X,X:X-X$X:Xv.p.!. X}.!.}.R.I ) ).v.p.2.l.H.}.;X|.!.w.1.",
").:X-X-XJ.J.N.j q r J M L E B N M B v M Z m s ' ).OX.X+X=X.XJ Y.4X4X<X4X5X5X6X>X-X-Xm.'  X~.~.R.{.U.F t m v m M b M A Q E E M m ",
".X:X-X-X:XT.j.j > _ I.W..X.Xb.F F ' m.I.v.i.K f d J d P i.i.y @.p.,.} ,.6.z.x.x.f.<.E d c.B.N.q.9.@.0 : > > 5 J n.I.U.U.U.(.} F ",
"U.:X-X,X:X}.B.D q c.-X:X4X8Xv.I a.:X4X4X3X3X'.y.8 t F y R ` u.5.z.x.d.5.,.~ e 1 w q 0 , d ~ 1.#.S a a % & p 3 s.2X$X X X#X%X%X).",
"M.>X$X>X-X-XJ.+.e V.>X:X-X$X!.L .X&X,X<X<X4X4X4Xd.J.4X<X1X:X:X:X:X:X>X:X:X:XP L U.`.XX%X:X2X1X:X^.F.e.*.O.o.V #.OX}.OXoXOX}.}.{.",
"u.%X>X%X-X:X{.;.e J.4X>X:X%X}.,..X&X-X4X5X4X<X<X{.p.+X;X:X-X:X-X$XOX{.&X:X+XR ~ 6X>X%X:X:X:X:X$X;X;X;X&X&X+Xz.~ OX}.$XOX$X$XOXT.",
"d .X%X>X-X$X$Xw.e J.7X5X2X:X.Xh.OX+X:X<X4X<X<X<X.X3.OX-XOXOX}.!.K.G.B.G.!.OXp.L ;X>X%X>X$X$X:X$X-X;X;X&X:X%X,.L .X X$X:XOXOX&XJ.",
"r .X%X>X:X:X-XZ.L m.5X5X4X>XXXd..X:X,X4X<X4X4X4X`.} I.P.V.7.<.} ( ( { 7.G.T.z.E ;X$X}.L.V.R.:X>X-X;X&X;X:X{.m R {.#X%X:XP.OXOXk.",
"F [.=X).z.c.S.5.R ~ L E 1.5.~ ~ T.$X>X<X<X4X<X<X).L L E W } 4.h.d.d.6.,.<.E K z.#X~.G.G.G.G.G.{.OX&X:X+X:XoX~ _ +XOX%XV.j.q.v.h.",
"6 ) $.#.~ ' #.#./ E ~ ~ R K c n ).OX>X2X<X4X$X|.m.J M.`.#X$X6X6X9X9X5X2X{.3.y z.~.J.N.j.7.2.6.q.v.J.{. XOXoXY P +X}.K.l.j.k.z.,.",
": f oX1X>X=X:X-X:X,X>X:X:X,X.X~ C.{.>X4X<X:X$X}.c.~ +X:X>X%X>X6X4X6X5X<XG.q.n $.d.<.( e e 1 2 s s c v L ,.1.b i ^.^.l.j.k.h.p.~ ",
"8 ) 3X&X%X-XOXOX#X$X&XOX;X,X3X,.p.N.$X4X>X-X$XOXx.5.:X:X%X$X$X%X$X>X<X;Xv.q.t y 4.z.d.} _ u 8 0 0 8 > 7 y y h - &.r.@.@.,.( ) f ",
"8 D.-X&X$X%X%X$X$X$X%X%X%X%X1X' <.v.J. X>X$X$X}.d.d.$X;X-X-X$X%X:X-X>X<X>Xl.P _.$X,X2X4X2X8X[.#.: 6 w J ) @.l O @ @ & z ^ T y 0 ",
"P .X&XOX$X$X%X$X$X$X$X$X$X$X$Xh.' B.H.K.>XOX$X~.5.h.-X<X>X>X%X$X$X$X>X-X:XJ.3.oXOX,X4X4X4X4X3X[.6 b.OX1X=X:XQ.>.>.r.Q.OX$X}.z.f ",
"i.Y.&X-X$XOXOX$X$X$X$X$X$X#X>Xz.,.J.G.G.#X>X$X}.#.p.<X5X4X<X%X$X-X-X-X-X:X!.p.`.$X>X<X6X<X4X4X].I +X<X>X,X3X-X-X;X,X=X>X<X5X1X$.",
"z.L.P. X:X:XOXOXOX#X#X$X#X#XU.~ #.B.G.G.}.$X#X}.~ ,.8X5X6X4X<X>X-X-X:X:X$X.X4.T.:X>X<X4X>X:XOXJ.y.3X-X&X-X-XOX%XOXOX&XOXOX,X3Xp.",
"5.Z.F.G.G.K.T.{.OX$X#X}.T.K.<.n ' B.G.B.{.$X#X`.J ' <X<X5X4X4X4X4X>X%X-X$X{.E d.J.OX<X>X-X$X{.k._.2X$X$X+X-X%X%X$X$X$X$X%X-X3Xu.",
"d f.F.H.G.G.G.J.R.~.T.K.G.B./ n ~ l.G.H.P.$X}.z.f _ 8X8X4X5X4X7X4X4X%X%X:XOXL 3.G.J.}.>X$X:X!.8.'.1X$X$X$X$X$X%X$X;X#X$X>X-X1Xu.",
", f @.5.<.;.:.:.( ^ E E N u 7 6 w / q.l.l.v.2.T > L :X5X4X9X4X4X4X4X4X>X;XOXn ' G.G.G. X$XOXT.3.8X$X$X$X$X$X$X$X$X$X$X$X&X:X:Xz.",
"8 8 , p $ * * $ b p.V.M.z.s.t.t.P m N b L m m w , b }.R.l.l.P. X,X<X6X>XL.l.d ` J.H.H.!.#XOXS.z.2X$X$X$X$X%X$X-X$XOX-X+XOXOX%XV.",
"f.].A.>.%.>./. X1X&X-X:X:X-X:X-X-X-X=Xa.9 6 9 : | | X.+.C C C m T / E E E U q y ,.6.k.8.c.6.L 6.T.$X$X$X$X$X$X%X$X$X$X%XOX$X:XV.",
"Z.;X,X&X:X:X%X1X1X:X:X:X-X:X,X-X$X,X,X6.r I G m a ..O.@.! ( ( R e 3 s ' #.} t.] ,.2.p.5.,.L y f.G.}.$X$X%XXX$X#X$X$X$X%X%X$X%Xp.",
"' OX;X:X:X$X-X-X:X:X:X%X>X:X,X:X:X:X}.,.] '.OXOXoX&X*X&XOX XoX|.T.6.p.8X>X:X1X:X:X%X:X:X4X_.J z.G.G.}.$X#X#X#X#X$X$X$XOX;X XI.R ",
"J c.-X;X:X$X>X:X:X:X%X,XXXK.{.$X$X:XOX<.' `.#XXXOXOX=X&XOXOXOX.X$Xv.v.4X$X$X$X$X$X$X$X$X%X+XR p.G.G.H.T.}.XX$X X$X$X$X$X^.H.8.M ",
"s 6.;X:X:X:X>X$X%X>X#XP.G.G.G.K.~.#X;XU.E c.}.}.&X+X:X,X$X$X-XOXOX4.).%X%X$X%X$X$X$X$X$XOX&Xc./ G.G.G.G.G.J.P.#X#X$X}.R.G.G.@.m ",
"e v.;X-X:X%X;X#X#X~.H.C.J.G.G.G.E.#X;X{.~ T.|.oX-X-X}.G.G.K.!.}.P./ d.XX#X$X$X$XOX$X$XOX|.T.k.M B.H.G.B.H.H.B.P.}.~.P.H.F.H.( v ",
"w I.#XOX$X XP.B.N.w.0.0.0.q.l.B.B.H.XX$XU U.|.OX!.L.l.c.x.k.j.h.6.Q L h.K.R. X#X!.P.K.K.H.G.@.2 @.Z.G.N.K.B.G.H.F.F.w.j.0.! v w ",
"t 3.h.v.h.2.{ { S B j X < g B <.N.B.R.{.J 3.{.!.Z.f.h.6.7.6.2.p.#.M s R ,.2.q.l.l.l.l.N.G.q.f 0 y #.h.j.7.2.-.-.{ A b u 4 , q 8 ",
"F ~ ~ n M U E Q { U U M N u u n #.#.' ] H 8 t t t f f f f f a a - & & % M Y ~ _ _ Y I J n r 8 8 5 r y 1 s n n n U Y ~ Y J q 9 9 ",
"6 t a.'.oXXX.X.XXXXXXXoX'.R.I.i.y y K ` ] _ I y 6 8 ` g.#.l z  ...o.r.A.{.}.XXXXoX{.`.{.T.T.Y.J.u.w n a..XoXoXOX%X%X:X%X.Xn.L 0 ",
"6 J 8X8X4X2X>X:X%X<X>X2X4X3X0X8XP _ .X<X3X<X:XoXg.G i. X&X^.!.^.*X&X,X1X%X>X:X:X:X:X:X:X,X:X;X5Xk.n ,.1X:XOX}.OX#XOXOXOX;X>XOXS.",
"8 _ 8X%X%X%X:XOX%X-X$X#X:X:X4X0X' M.%X-X<X<X3X<X8XI.C c.,X-X:X>X;X;X-X;X>X%X>X$X}.`.R.}.%X%X:X<Xf.K ,.$X X{. XOXOXXX}.XXXXXX+X{.",
": z.3X+X+X$X-X$X$X$X$X$X$X$X1X9X7.I.%X$X4X4X4X5X<X3XE k.-X-X-X-X-X;X$X X XR.P.B.B.G.B.B.G.W. X-XOX3.` ).OX{. XOX$X$XXX#XXXXX$XP.",
"5 T.:X+XOX$X$X$X$X$X%X$X-X:X:X4Xp.V.:X$X<X4X<X4X5X:XR m.{.`.}.R.T.G.B.l.h.0.2.<.<.<.7.h.F.G.K.!.=Xz.E U.OX}.;XOX$X$X$X$X$X#X$XN.",
"K +XOXOXOX$X$X$X$X$X$X%X:X%X+X1Xd.v.OX:X2X4X4X4X<XOXR E { { ^ Q E E E U M v 3 1 1 q q e C @.#.,.$.] U c..X}.#X%X%X$X$X$X$X$X$Xd.",
"i.<X X&X$X$X$X-X$X%X$X$X$X%XOX1Xx.z.OX:X<X4X4X:X{.L.m m v.U.).OX+X:X1X%X{.).} w r 7 n ' 5.c.p.( f q L z.}.}.OX#X$X>X%X$X$X$X X6."
};
